<svg xmlns="http://www.w3.org/2000/svg" xmlns:xlink="http://www.w3.org/1999/xlink" width="500" zoomAndPan="magnify" viewBox="0 0 375 374.999991" height="500" preserveAspectRatio="xMidYMid meet" version="1.0"><defs><clipPath id="e9fba8661c"><path d="M 111 9.03125 L 264 9.03125 L 264 162 L 111 162 Z M 111 9.03125 " clip-rule="nonzero"/></clipPath><clipPath id="56ae855af6"><path d="M 55.109375 170 L 319.859375 170 L 319.859375 366 L 55.109375 366 Z M 55.109375 170 " clip-rule="nonzero"/></clipPath></defs><g clip-path="url(#e9fba8661c)"><path fill="#ffffff" d="M 263.707031 85.273438 C 263.707031 43.253906 229.515625 9.0625 187.496094 9.0625 C 145.476562 9.0625 111.289062 43.253906 111.289062 85.273438 C 111.289062 127.175781 145.476562 161.367188 187.496094 161.367188 C 229.515625 161.367188 263.707031 127.175781 263.707031 85.273438 Z M 263.707031 85.273438 " fill-opacity="1" fill-rule="nonzero"/></g><g clip-path="url(#56ae855af6)"><path fill="#ffffff" d="M 55.109375 302.617188 L 55.109375 325.640625 C 55.109375 347.859375 73.183594 365.933594 95.402344 365.933594 L 279.589844 365.933594 C 301.808594 365.933594 319.882812 347.859375 319.882812 325.640625 L 319.882812 302.617188 C 319.882812 229.632812 260.480469 170.230469 187.496094 170.230469 C 114.511719 170.230469 55.109375 229.632812 55.109375 302.617188 Z M 55.109375 302.617188 " fill-opacity="1" fill-rule="nonzero"/></g></svg>