<svg xmlns="http://www.w3.org/2000/svg" xmlns:xlink="http://www.w3.org/1999/xlink" width="500" zoomAndPan="magnify" viewBox="0 0 375 374.999991" height="500" preserveAspectRatio="xMidYMid meet" version="1.0"><defs><clipPath id="667223af00"><path d="M 38.296875 16.527344 L 295 16.527344 L 295 358.527344 L 38.296875 358.527344 Z M 38.296875 16.527344 " clip-rule="nonzero"/></clipPath><clipPath id="7ff924aa51"><path d="M 59 123 L 337.546875 123 L 337.546875 343 L 59 343 Z M 59 123 " clip-rule="nonzero"/></clipPath></defs><path fill="#ffffff" d="M 251.632812 54.160156 L 80.960938 54.160156 C 78.03125 54.160156 75.628906 56.5625 75.628906 59.496094 C 75.628906 62.429688 78.03125 64.828125 80.960938 64.828125 L 251.632812 64.828125 C 254.566406 64.828125 256.964844 62.429688 256.964844 59.496094 C 256.964844 56.5625 254.566406 54.160156 251.632812 54.160156 Z M 251.632812 54.160156 " fill-opacity="1" fill-rule="nonzero"/><path fill="#ffffff" d="M 251.632812 80.828125 L 80.960938 80.828125 C 78.03125 80.828125 75.628906 83.230469 75.628906 86.164062 C 75.628906 89.097656 78.03125 91.496094 80.960938 91.496094 L 251.632812 91.496094 C 254.566406 91.496094 256.964844 89.097656 256.964844 86.164062 C 256.964844 83.230469 254.566406 80.828125 251.632812 80.828125 Z M 251.632812 80.828125 " fill-opacity="1" fill-rule="nonzero"/><path fill="#ffffff" d="M 256.964844 112.828125 C 256.964844 109.894531 254.566406 107.496094 251.632812 107.496094 L 80.960938 107.496094 C 78.03125 107.496094 75.628906 109.894531 75.628906 112.828125 C 75.628906 115.761719 78.03125 118.164062 80.960938 118.164062 L 251.632812 118.164062 C 254.566406 118.164062 256.964844 115.761719 256.964844 112.828125 Z M 256.964844 112.828125 " fill-opacity="1" fill-rule="nonzero"/><path fill="#ffffff" d="M 80.960938 163.496094 C 78.03125 163.496094 75.628906 165.898438 75.628906 168.828125 C 75.628906 171.761719 78.03125 174.164062 80.960938 174.164062 L 136.964844 174.164062 C 139.898438 174.164062 142.296875 171.761719 142.296875 168.828125 C 142.296875 165.898438 139.898438 163.496094 136.964844 163.496094 Z M 80.960938 163.496094 " fill-opacity="1" fill-rule="nonzero"/><path fill="#ffffff" d="M 237.230469 134.164062 L 80.960938 134.164062 C 78.03125 134.164062 75.628906 136.5625 75.628906 139.496094 C 75.628906 142.429688 78.03125 144.828125 80.960938 144.828125 L 226.5625 144.828125 Z M 237.230469 134.164062 " fill-opacity="1" fill-rule="nonzero"/><g clip-path="url(#667223af00)"><path fill="#ffffff" d="M 284.164062 334.964844 C 283.898438 334.964844 283.898438 334.964844 283.632812 334.964844 L 283.632812 342.164062 C 283.632812 345.097656 281.230469 347.5 278.296875 347.5 L 54.296875 347.5 C 51.363281 347.5 48.960938 345.097656 48.960938 342.164062 L 48.960938 32.828125 C 48.960938 29.894531 51.363281 27.496094 54.296875 27.496094 L 278.296875 27.496094 C 281.230469 27.496094 283.632812 29.894531 283.632812 32.828125 L 283.632812 117.363281 C 284.699219 118.164062 285.5 118.695312 286.566406 119.761719 L 294.296875 127.230469 L 294.296875 32.828125 C 294.296875 24.027344 287.097656 16.828125 278.296875 16.828125 L 54.296875 16.828125 C 45.496094 16.828125 38.296875 24.027344 38.296875 32.828125 L 38.296875 342.164062 C 38.296875 350.964844 45.496094 358.164062 54.296875 358.164062 L 278.296875 358.164062 C 287.097656 358.164062 294.296875 350.964844 294.296875 342.164062 L 294.296875 340.03125 L 287.898438 337.097656 C 286.566406 336.832031 285.230469 336.03125 284.164062 334.964844 Z M 284.164062 334.964844 " fill-opacity="1" fill-rule="nonzero"/></g><path fill="#ffffff" d="M 283.632812 192.296875 C 286.832031 196.296875 290.566406 200.832031 294.296875 205.628906 L 294.296875 169.363281 L 283.632812 180.03125 Z M 283.632812 192.296875 " fill-opacity="1" fill-rule="nonzero"/><g clip-path="url(#7ff924aa51)"><path fill="#ffffff" d="M 332.964844 238.695312 L 322.296875 236.03125 C 319.097656 235.230469 315.898438 235.765625 313.230469 237.363281 C 312.699219 237.628906 312.164062 238.164062 311.632812 238.429688 L 299.363281 230.964844 C 287.898438 213.363281 266.03125 187.761719 263.632812 185.097656 C 263.632812 185.097656 289.765625 158.695312 290.03125 158.695312 C 295.632812 152.828125 295.632812 143.230469 289.765625 137.628906 L 279.097656 127.496094 C 273.230469 121.894531 264.164062 122.164062 258.566406 127.761719 L 222.296875 164.03125 C 212.429688 162.695312 199.097656 164.296875 199.097656 164.296875 C 188.164062 165.628906 179.898438 172.828125 171.097656 178.164062 C 155.097656 188.03125 145.230469 200.03125 136.695312 211.761719 C 133.230469 216.296875 133.761719 223.230469 137.230469 227.496094 C 137.230469 227.496094 142.5625 233.898438 142.828125 234.164062 C 144.695312 235.765625 147.097656 236.5625 149.496094 237.097656 L 136.429688 250.164062 C 135.898438 250.699219 135.628906 251.230469 135.363281 251.496094 L 114.296875 294.964844 L 100.164062 312.03125 L 95.894531 305.898438 C 94.296875 303.765625 91.363281 302.964844 88.960938 304.296875 L 80.695312 308.832031 L 78.296875 298.429688 C 77.761719 296.296875 75.894531 294.699219 73.761719 294.429688 C 71.628906 294.164062 69.496094 295.496094 68.429688 297.363281 L 60.164062 314.429688 C 58.828125 317.097656 59.894531 320.296875 62.5625 321.632812 C 65.230469 322.964844 68.429688 321.898438 69.761719 319.230469 L 71.628906 315.496094 L 72.164062 318.164062 C 72.429688 319.765625 73.761719 321.097656 75.097656 321.898438 C 76.695312 322.699219 78.296875 322.429688 79.894531 321.632812 L 90.296875 316.03125 C 90.296875 316.03125 95.894531 323.765625 95.894531 323.765625 C 97.761719 326.429688 102.03125 326.699219 104.164062 324.296875 L 120.964844 304.03125 L 151.898438 288.832031 C 150.03125 291.765625 148.964844 294.964844 150.03125 298.429688 C 153.496094 308.296875 162.5625 312.03125 170.5625 315.230469 C 175.097656 317.097656 179.363281 318.699219 182.03125 321.097656 C 189.230469 328.03125 204.429688 328.296875 216.699219 328.296875 C 219.628906 328.296875 222.5625 328.566406 225.230469 328.566406 C 225.230469 328.566406 258.566406 327.230469 258.566406 327.230469 C 260.429688 327.230469 262.566406 326.699219 264.429688 326.429688 C 273.765625 325.363281 282.832031 324.296875 289.230469 323.5 C 289.5 325.363281 290.566406 326.699219 292.429688 327.5 C 292.429688 327.5 324.433594 341.632812 324.699219 341.632812 C 327.363281 342.699219 330.566406 341.632812 331.632812 338.964844 C 332.699219 336.296875 331.632812 333.097656 328.964844 332.03125 L 300.964844 319.765625 L 318.296875 247.496094 C 318.566406 246.699219 319.097656 246.164062 319.898438 246.429688 L 330.566406 249.097656 C 333.5 249.898438 336.433594 248.03125 336.964844 245.363281 C 337.5 242.699219 335.898438 239.496094 332.964844 238.695312 Z M 145.230469 220.5625 C 144.964844 220.296875 144.964844 220.296875 145.230469 220.5625 C 144.964844 220.03125 145.230469 218.964844 145.496094 217.628906 C 154.5625 205.363281 163.097656 195.496094 176.695312 187.230469 C 178.832031 185.898438 180.695312 184.5625 182.5625 183.230469 C 188.429688 179.230469 193.765625 175.496094 200.429688 174.695312 C 203.898438 174.164062 208.429688 174.164062 212.429688 174.164062 L 177.765625 208.832031 C 166.5625 209.628906 160.964844 218.964844 153.496094 225.898438 C 152.695312 226.695312 151.097656 226.695312 150.03125 226.164062 Z M 130.296875 287.496094 C 130.828125 285.898438 141.761719 262.699219 141.761719 262.699219 L 155.097656 275.496094 Z M 147.898438 253.628906 L 266.03125 135.230469 C 267.632812 133.628906 270.03125 133.628906 271.632812 135.230469 C 271.632812 135.230469 282.296875 145.363281 282.296875 145.363281 C 283.898438 146.964844 283.898438 149.628906 282.296875 151.230469 L 164.429688 269.363281 Z M 217.230469 237.898438 L 227.363281 256.296875 C 227.097656 256.832031 227.097656 257.628906 226.832031 258.164062 C 224.164062 267.496094 220.164062 281.363281 212.429688 282.699219 C 212.429688 282.699219 203.628906 284.296875 203.628906 284.296875 C 198.296875 285.097656 192.695312 280.832031 187.628906 280.03125 C 181.765625 278.964844 175.097656 278.964844 168.695312 280.296875 L 213.765625 235.230469 Z M 291.363281 312.296875 C 291.363281 312.296875 291.097656 312.296875 291.363281 312.296875 C 285.230469 313.632812 270.832031 314.964844 263.097656 316.03125 C 263.097656 316.03125 262.832031 316.03125 262.832031 316.03125 C 247.898438 318.429688 231.898438 318.164062 216.964844 317.898438 C 208.429688 317.898438 193.765625 317.632812 189.496094 313.632812 C 185.230469 309.632812 179.898438 307.496094 174.5625 305.363281 C 166.832031 302.429688 162.03125 300.296875 160.429688 295.496094 C 160.695312 294.699219 162.5625 292.832031 163.898438 292.296875 C 171.628906 289.632812 179.097656 288.832031 185.765625 290.164062 C 192.695312 291.496094 198.296875 295.765625 205.496094 294.429688 L 214.296875 292.832031 C 228.699219 290.429688 233.765625 272.5625 237.230469 260.832031 C 237.765625 259.496094 238.03125 258.164062 238.296875 256.832031 C 238.832031 255.496094 238.5625 253.898438 237.765625 252.5625 C 237.765625 252.5625 226.03125 231.230469 226.03125 231.230469 C 224.964844 229.363281 222.832031 228.296875 221.496094 226.964844 L 256.164062 192.03125 C 260.164062 196.832031 280.964844 221.097656 291.097656 237.097656 C 291.632812 237.898438 292.164062 238.429688 292.699219 238.699219 L 306.832031 247.230469 Z M 291.363281 312.296875 " fill-opacity="1" fill-rule="nonzero"/></g></svg>