<svg xmlns="http://www.w3.org/2000/svg" xmlns:xlink="http://www.w3.org/1999/xlink" width="500" zoomAndPan="magnify" viewBox="0 0 375 374.999991" height="500" preserveAspectRatio="xMidYMid meet" version="1.0"><defs><clipPath id="0a4d5342f4"><path d="M 37.5 16.992188 L 288 16.992188 L 288 319 L 37.5 319 Z M 37.5 16.992188 " clip-rule="nonzero"/></clipPath><clipPath id="ee6977ff04"><path d="M 207 103 L 355.5 103 L 355.5 358 L 207 358 Z M 207 103 " clip-rule="nonzero"/></clipPath></defs><g clip-path="url(#0a4d5342f4)"><path fill="#ffffff" d="M 246.453125 305.761719 L 50.007812 305.761719 L 50.007812 29.5 L 275.15625 29.5 L 275.15625 93.417969 C 275.15625 96.871094 277.957031 99.671875 281.410156 99.671875 C 284.867188 99.671875 287.664062 96.875 287.664062 93.417969 L 287.664062 23.246094 C 287.664062 19.792969 284.867188 16.992188 281.410156 16.992188 L 43.753906 16.992188 C 40.300781 16.992188 37.5 19.792969 37.5 23.246094 L 37.5 312.015625 C 37.5 315.472656 40.300781 318.269531 43.753906 318.269531 L 246.453125 318.269531 C 249.90625 318.269531 252.707031 315.472656 252.707031 312.015625 C 252.707031 308.5625 249.90625 305.761719 246.453125 305.761719 Z M 246.453125 305.761719 " fill-opacity="1" fill-rule="nonzero"/></g><path fill="#ffffff" d="M 131.207031 66.113281 C 131.207031 62.660156 128.40625 59.859375 124.953125 59.859375 L 86.511719 59.859375 C 83.058594 59.859375 80.257812 62.65625 80.257812 66.113281 L 80.257812 104.554688 C 80.257812 108.007812 83.054688 110.808594 86.511719 110.808594 L 124.953125 110.808594 C 128.40625 110.808594 131.207031 108.007812 131.207031 104.554688 Z M 118.699219 98.300781 L 92.765625 98.300781 L 92.765625 72.367188 L 118.699219 72.367188 Z M 118.699219 98.300781 " fill-opacity="1" fill-rule="nonzero"/><path fill="#ffffff" d="M 244.90625 74.777344 C 244.90625 71.320312 242.105469 68.523438 238.652344 68.523438 L 148.773438 68.523438 C 145.320312 68.523438 142.519531 71.320312 142.519531 74.777344 C 142.519531 78.230469 145.320312 81.03125 148.773438 81.03125 L 238.652344 81.03125 C 242.105469 81.03125 244.90625 78.230469 244.90625 74.777344 Z M 244.90625 74.777344 " fill-opacity="1" fill-rule="nonzero"/><path fill="#ffffff" d="M 148.773438 104.851562 L 193.714844 104.851562 C 197.167969 104.851562 199.96875 102.054688 199.96875 98.597656 C 199.96875 95.144531 197.167969 92.34375 193.714844 92.34375 L 148.773438 92.34375 C 145.320312 92.34375 142.519531 95.144531 142.519531 98.597656 C 142.519531 102.054688 145.320312 104.851562 148.773438 104.851562 Z M 148.773438 104.851562 " fill-opacity="1" fill-rule="nonzero"/><path fill="#ffffff" d="M 131.207031 148.410156 C 131.207031 144.957031 128.40625 142.15625 124.953125 142.15625 L 86.511719 142.15625 C 83.058594 142.15625 80.257812 144.957031 80.257812 148.410156 L 80.257812 186.851562 C 80.257812 190.304688 83.054688 193.105469 86.511719 193.105469 L 124.953125 193.105469 C 128.40625 193.105469 131.207031 190.308594 131.207031 186.851562 Z M 118.699219 180.597656 L 92.765625 180.597656 L 92.765625 154.664062 L 118.699219 154.664062 Z M 118.699219 180.597656 " fill-opacity="1" fill-rule="nonzero"/><path fill="#ffffff" d="M 198.417969 150.820312 L 148.773438 150.820312 C 145.320312 150.820312 142.519531 153.621094 142.519531 157.074219 C 142.519531 160.527344 145.320312 163.328125 148.773438 163.328125 L 198.414062 163.328125 C 201.871094 163.328125 204.667969 160.527344 204.667969 157.074219 C 204.667969 153.621094 201.871094 150.820312 198.417969 150.820312 Z M 198.417969 150.820312 " fill-opacity="1" fill-rule="nonzero"/><path fill="#ffffff" d="M 148.773438 187.152344 L 193.714844 187.152344 C 197.167969 187.152344 199.96875 184.351562 199.96875 180.894531 C 199.96875 177.441406 197.167969 174.640625 193.714844 174.640625 L 148.773438 174.640625 C 145.320312 174.640625 142.519531 177.441406 142.519531 180.894531 C 142.519531 184.351562 145.320312 187.152344 148.773438 187.152344 Z M 148.773438 187.152344 " fill-opacity="1" fill-rule="nonzero"/><path fill="#ffffff" d="M 124.953125 224.457031 L 86.511719 224.457031 C 83.058594 224.457031 80.257812 227.253906 80.257812 230.710938 L 80.257812 269.152344 C 80.257812 272.605469 83.054688 275.40625 86.511719 275.40625 L 124.953125 275.40625 C 128.40625 275.40625 131.207031 272.605469 131.207031 269.152344 L 131.207031 230.710938 C 131.207031 227.253906 128.40625 224.457031 124.953125 224.457031 Z M 118.699219 262.898438 L 92.765625 262.898438 L 92.765625 236.960938 L 118.699219 236.960938 Z M 118.699219 262.898438 " fill-opacity="1" fill-rule="nonzero"/><path fill="#ffffff" d="M 232.285156 239.371094 C 232.285156 235.917969 229.484375 233.117188 226.03125 233.117188 L 148.773438 233.117188 C 145.320312 233.117188 142.519531 235.917969 142.519531 239.371094 C 142.519531 242.824219 145.320312 245.625 148.773438 245.625 L 226.03125 245.625 C 229.484375 245.625 232.285156 242.828125 232.285156 239.371094 Z M 232.285156 239.371094 " fill-opacity="1" fill-rule="nonzero"/><path fill="#ffffff" d="M 145.851562 267.445312 C 142.398438 267.445312 139.597656 270.246094 139.597656 273.699219 C 139.597656 277.152344 142.398438 279.953125 145.851562 279.953125 L 190.789062 279.953125 C 194.246094 279.953125 197.042969 277.152344 197.042969 273.699219 C 197.042969 270.246094 194.246094 267.445312 190.789062 267.445312 Z M 145.851562 267.445312 " fill-opacity="1" fill-rule="nonzero"/><g clip-path="url(#ee6977ff04)"><path fill="#ffffff" d="M 349.339844 148.445312 C 345.628906 139.667969 340.3125 131.785156 333.542969 125.015625 C 326.773438 118.246094 318.890625 112.929688 310.109375 109.214844 C 301.015625 105.371094 291.363281 103.421875 281.410156 103.421875 C 271.460938 103.421875 261.804688 105.371094 252.710938 109.214844 C 243.933594 112.929688 236.046875 118.246094 229.28125 125.015625 C 222.511719 131.785156 217.195312 139.667969 213.480469 148.445312 C 209.636719 157.539062 207.6875 167.195312 207.6875 177.144531 C 207.6875 187.097656 209.636719 196.75 213.480469 205.847656 C 217.195312 214.625 222.511719 222.507812 229.28125 229.277344 C 236.046875 236.046875 243.933594 241.363281 252.710938 245.074219 C 256.855469 246.828125 261.121094 248.1875 265.472656 249.148438 L 265.472656 260.203125 C 260.757812 261.625 257.3125 266.007812 257.3125 271.179688 L 257.3125 333.898438 C 257.3125 347.1875 268.125 357.996094 281.410156 357.996094 C 294.699219 357.996094 305.511719 347.1875 305.511719 333.898438 L 305.511719 271.179688 C 305.511719 266.007812 302.066406 261.625 297.347656 260.203125 L 297.347656 249.148438 C 301.703125 248.1875 305.964844 246.828125 310.109375 245.074219 C 318.890625 241.363281 326.773438 236.046875 333.542969 229.277344 C 340.3125 222.507812 345.628906 214.625 349.339844 205.847656 C 353.1875 196.753906 355.136719 187.097656 355.136719 177.144531 C 355.136719 167.195312 353.1875 157.539062 349.339844 148.445312 Z M 284.839844 259.71875 L 277.980469 259.71875 L 277.980469 251.125 L 281.164062 251.25 C 281.328125 251.257812 281.492188 251.257812 281.65625 251.25 L 284.839844 251.125 Z M 293.003906 333.898438 C 293.003906 340.289062 287.800781 345.492188 281.410156 345.492188 C 275.019531 345.492188 269.820312 340.289062 269.820312 333.898438 L 269.820312 272.222656 L 293.003906 272.222656 Z M 324.699219 220.433594 C 313.136719 231.996094 297.761719 238.363281 281.410156 238.363281 C 265.058594 238.363281 249.6875 231.996094 238.125 220.433594 C 226.5625 208.871094 220.191406 193.5 220.191406 177.144531 C 220.191406 160.792969 226.5625 145.421875 238.125 133.859375 C 249.6875 122.296875 265.058594 115.929688 281.410156 115.929688 C 297.761719 115.929688 313.136719 122.296875 324.699219 133.859375 C 336.261719 145.421875 342.628906 160.792969 342.628906 177.144531 C 342.628906 193.5 336.261719 208.871094 324.699219 220.433594 Z M 324.699219 220.433594 " fill-opacity="1" fill-rule="nonzero"/></g><path fill="#ffffff" d="M 305.460938 154.722656 L 266.414062 193.765625 L 250.875 178.226562 C 248.433594 175.785156 244.472656 175.785156 242.03125 178.226562 C 239.589844 180.667969 239.589844 184.625 242.03125 187.070312 L 261.992188 207.03125 C 263.214844 208.253906 264.816406 208.863281 266.414062 208.863281 C 268.015625 208.863281 269.617188 208.253906 270.835938 207.03125 L 314.304688 163.566406 C 316.746094 161.125 316.746094 157.164062 314.304688 154.722656 C 311.863281 152.28125 307.902344 152.28125 305.460938 154.722656 Z M 305.460938 154.722656 " fill-opacity="1" fill-rule="nonzero"/></svg>