<svg xmlns="http://www.w3.org/2000/svg" xmlns:xlink="http://www.w3.org/1999/xlink" width="500" zoomAndPan="magnify" viewBox="0 0 375 374.999991" height="500" preserveAspectRatio="xMidYMid meet" version="1.0"><defs><clipPath id="a76f59e73b"><path d="M 67 184 L 308 184 L 308 340.5 L 67 340.5 Z M 67 184 " clip-rule="nonzero"/></clipPath><clipPath id="27c7cf77e9"><path d="M 8 37.5 L 367 37.5 L 367 212 L 8 212 Z M 8 37.5 " clip-rule="nonzero"/></clipPath></defs><g clip-path="url(#a76f59e73b)"><path fill="#ffffff" d="M 256.753906 340.496094 L 118.21875 340.496094 C 104.578125 340.496094 91.75 335.183594 82.101562 325.535156 C 72.453125 315.886719 67.140625 303.058594 67.140625 289.417969 L 67.140625 184.785156 L 85.097656 184.785156 L 85.097656 289.417969 C 85.097656 307.679688 99.957031 322.539062 118.21875 322.539062 L 256.753906 322.539062 C 275.015625 322.539062 289.875 307.679688 289.875 289.417969 L 289.875 184.785156 L 307.832031 184.785156 L 307.832031 289.417969 C 307.832031 303.058594 302.519531 315.886719 292.871094 325.535156 C 283.222656 335.183594 270.398438 340.496094 256.753906 340.496094 Z M 256.753906 340.496094 " fill-opacity="1" fill-rule="nonzero"/></g><g clip-path="url(#27c7cf77e9)"><path fill="#ffffff" d="M 332.082031 211.007812 C 324.78125 211.007812 317.785156 208.75 311.839844 204.480469 L 187.488281 115.113281 L 63.132812 204.480469 C 57.191406 208.75 50.191406 211.007812 42.894531 211.007812 C 31.730469 211.007812 21.183594 205.601562 14.679688 196.546875 C 3.507812 181 7.066406 159.265625 22.609375 148.09375 L 166.667969 44.566406 C 168.476562 43.210938 170.425781 42.03125 172.46875 41.054688 C 172.566406 41.003906 172.667969 40.960938 172.765625 40.914062 L 172.894531 40.851562 C 172.988281 40.808594 173.082031 40.765625 173.175781 40.722656 C 177.097656 38.945312 181.273438 37.921875 185.589844 37.691406 L 185.625 37.6875 L 186.035156 37.667969 C 186.039062 37.667969 186.042969 37.667969 186.046875 37.667969 L 186.226562 37.664062 C 186.398438 37.65625 186.570312 37.652344 186.746094 37.648438 C 186.824219 37.644531 186.90625 37.644531 186.988281 37.644531 L 187.003906 37.644531 C 187.167969 37.640625 187.328125 37.640625 187.488281 37.640625 C 187.644531 37.640625 187.796875 37.640625 187.949219 37.644531 L 188.230469 37.648438 C 188.441406 37.652344 188.660156 37.660156 188.878906 37.667969 L 188.96875 37.671875 C 193.429688 37.859375 197.75 38.886719 201.804688 40.726562 C 201.902344 40.769531 202.011719 40.820312 202.121094 40.871094 L 202.230469 40.925781 C 202.320312 40.964844 202.410156 41.007812 202.5 41.050781 C 204.535156 42.023438 206.492188 43.207031 208.304688 44.566406 L 352.363281 148.09375 C 367.910156 159.265625 371.46875 181 360.296875 196.546875 C 353.789062 205.601562 343.242188 211.007812 332.082031 211.007812 Z M 187.488281 93 L 322.320312 189.894531 C 325.191406 191.957031 328.566406 193.046875 332.082031 193.046875 C 337.476562 193.046875 342.570312 190.4375 345.710938 186.066406 C 351.105469 178.5625 349.386719 168.070312 341.882812 162.675781 L 197.664062 59.03125 L 197.578125 58.96875 C 196.699219 58.304688 195.742188 57.722656 194.738281 57.242188 L 194.398438 57.085938 C 192.441406 56.199219 190.371094 55.703125 188.226562 55.613281 C 188.210938 55.613281 188.199219 55.613281 188.1875 55.613281 C 188.074219 55.605469 187.960938 55.605469 187.847656 55.601562 L 187.71875 55.597656 C 187.648438 55.597656 187.574219 55.597656 187.503906 55.597656 L 187.476562 55.597656 C 187.402344 55.597656 187.324219 55.597656 187.246094 55.597656 L 187.136719 55.601562 L 186.996094 55.621094 L 186.605469 55.621094 C 184.511719 55.726562 182.484375 56.21875 180.585938 57.082031 L 180.246094 57.238281 C 179.230469 57.726562 178.273438 58.304688 177.394531 58.96875 L 177.226562 59.09375 L 33.089844 162.675781 C 25.585938 168.070312 23.867188 178.5625 29.261719 186.066406 C 32.402344 190.4375 37.5 193.046875 42.894531 193.046875 C 46.40625 193.046875 49.78125 191.957031 52.652344 189.894531 Z M 187.488281 93 " fill-opacity="1" fill-rule="nonzero"/></g></svg>