<svg xmlns="http://www.w3.org/2000/svg" xmlns:xlink="http://www.w3.org/1999/xlink" width="500" zoomAndPan="magnify" viewBox="0 0 375 374.999991" height="500" preserveAspectRatio="xMidYMid meet" version="1.0"><defs><clipPath id="142183dc22"><path d="M 34.171875 34.75 L 235 34.75 L 235 340 L 34.171875 340 Z M 34.171875 34.75 " clip-rule="nonzero"/></clipPath></defs><path fill="#ffffff" d="M 334.683594 176.335938 L 275.164062 116.816406 C 274.429688 116.082031 273.632812 115.429688 272.769531 114.855469 C 271.910156 114.277344 271 113.792969 270.042969 113.394531 C 269.085938 113 268.097656 112.699219 267.082031 112.496094 C 266.066406 112.292969 265.039062 112.195312 264.003906 112.195312 C 262.964844 112.195312 261.941406 112.292969 260.921875 112.496094 C 259.90625 112.699219 258.921875 113 257.960938 113.394531 C 257.003906 113.792969 256.09375 114.277344 255.234375 114.855469 C 254.371094 115.429688 253.574219 116.082031 252.84375 116.816406 C 252.109375 117.550781 251.457031 118.347656 250.878906 119.207031 C 250.304688 120.070312 249.816406 120.980469 249.421875 121.9375 C 249.023438 122.894531 248.726562 123.882812 248.523438 124.898438 C 248.320312 125.914062 248.21875 126.941406 248.21875 127.976562 C 248.21875 129.011719 248.320312 130.039062 248.523438 131.054688 C 248.726562 132.070312 249.023438 133.058594 249.421875 134.015625 C 249.816406 134.972656 250.304688 135.882812 250.878906 136.746094 C 251.457031 137.605469 252.109375 138.402344 252.84375 139.136719 L 285.421875 171.714844 L 113.085938 171.714844 C 112.050781 171.714844 111.023438 171.816406 110.007812 172.015625 C 108.992188 172.21875 108.003906 172.519531 107.046875 172.914062 C 106.089844 173.3125 105.179688 173.796875 104.320312 174.375 C 103.457031 174.949219 102.660156 175.605469 101.925781 176.335938 C 101.195312 177.070312 100.539062 177.867188 99.964844 178.726562 C 99.386719 179.589844 98.902344 180.5 98.503906 181.457031 C 98.109375 182.414062 97.808594 183.402344 97.609375 184.417969 C 97.40625 185.433594 97.304688 186.460938 97.304688 187.496094 C 97.304688 188.53125 97.40625 189.558594 97.609375 190.574219 C 97.808594 191.59375 98.109375 192.578125 98.503906 193.535156 C 98.902344 194.492188 99.386719 195.402344 99.964844 196.265625 C 100.539062 197.125 101.195312 197.925781 101.925781 198.65625 C 102.660156 199.390625 103.457031 200.042969 104.320312 200.621094 C 105.179688 201.195312 106.089844 201.679688 107.046875 202.078125 C 108.003906 202.472656 108.992188 202.773438 110.007812 202.976562 C 111.023438 203.179688 112.050781 203.277344 113.085938 203.277344 L 285.421875 203.277344 L 252.84375 235.855469 C 252.109375 236.589844 251.457031 237.386719 250.878906 238.25 C 250.304688 239.109375 249.816406 240.019531 249.421875 240.976562 C 249.023438 241.933594 248.726562 242.921875 248.523438 243.9375 C 248.320312 244.953125 248.21875 245.980469 248.21875 247.015625 C 248.21875 248.054688 248.320312 249.078125 248.523438 250.097656 C 248.726562 251.113281 249.023438 252.097656 249.421875 253.058594 C 249.816406 254.015625 250.304688 254.921875 250.878906 255.785156 C 251.457031 256.648438 252.109375 257.445312 252.84375 258.175781 C 253.574219 258.910156 254.371094 259.5625 255.234375 260.140625 C 256.097656 260.714844 257.003906 261.203125 257.960938 261.597656 C 258.921875 261.996094 259.90625 262.292969 260.921875 262.496094 C 261.941406 262.699219 262.964844 262.800781 264.003906 262.800781 C 265.039062 262.800781 266.066406 262.699219 267.082031 262.496094 C 268.097656 262.292969 269.085938 261.996094 270.042969 261.597656 C 271 261.203125 271.910156 260.714844 272.769531 260.140625 C 273.632812 259.5625 274.429688 258.910156 275.164062 258.175781 L 334.683594 198.65625 C 335.417969 197.921875 336.070312 197.125 336.644531 196.265625 C 337.222656 195.402344 337.707031 194.492188 338.105469 193.535156 C 338.5 192.578125 338.800781 191.589844 339.003906 190.574219 C 339.203125 189.558594 339.304688 188.53125 339.304688 187.496094 C 339.304688 186.460938 339.203125 185.433594 339.003906 184.417969 C 338.800781 183.402344 338.5 182.414062 338.105469 181.457031 C 337.707031 180.5 337.222656 179.589844 336.644531 178.726562 C 336.070312 177.867188 335.417969 177.070312 334.683594 176.335938 Z M 334.683594 176.335938 " fill-opacity="1" fill-rule="nonzero"/><g clip-path="url(#142183dc22)"><path fill="#ffffff" d="M 218.304688 276.933594 C 217.269531 276.933594 216.242188 277.03125 215.226562 277.234375 C 214.210938 277.4375 213.222656 277.738281 212.265625 278.132812 C 211.308594 278.53125 210.398438 279.015625 209.535156 279.589844 C 208.675781 280.167969 207.878906 280.820312 207.144531 281.554688 C 206.414062 282.289062 205.757812 283.085938 205.183594 283.945312 C 204.605469 284.808594 204.121094 285.71875 203.722656 286.675781 C 203.328125 287.632812 203.027344 288.617188 202.824219 289.636719 C 202.625 290.652344 202.523438 291.679688 202.523438 292.714844 L 202.523438 308.496094 L 65.738281 308.496094 L 65.738281 66.496094 L 202.523438 66.496094 L 202.523438 82.277344 C 202.523438 83.316406 202.625 84.339844 202.824219 85.359375 C 203.027344 86.375 203.328125 87.359375 203.722656 88.320312 C 204.121094 89.277344 204.605469 90.183594 205.183594 91.046875 C 205.757812 91.910156 206.414062 92.707031 207.144531 93.4375 C 207.878906 94.171875 208.675781 94.824219 209.535156 95.402344 C 210.398438 95.976562 211.308594 96.464844 212.265625 96.859375 C 213.222656 97.257812 214.210938 97.554688 215.226562 97.757812 C 216.242188 97.960938 217.269531 98.0625 218.304688 98.0625 C 219.339844 98.0625 220.367188 97.960938 221.382812 97.757812 C 222.402344 97.554688 223.386719 97.257812 224.34375 96.859375 C 225.300781 96.464844 226.210938 95.976562 227.074219 95.402344 C 227.933594 94.824219 228.730469 94.171875 229.464844 93.4375 C 230.199219 92.707031 230.851562 91.910156 231.429688 91.046875 C 232.003906 90.183594 232.488281 89.277344 232.886719 88.320312 C 233.28125 87.359375 233.582031 86.375 233.785156 85.359375 C 233.988281 84.339844 234.085938 83.316406 234.085938 82.277344 L 234.085938 61.234375 C 234.085938 60.375 234.046875 59.515625 233.960938 58.65625 C 233.875 57.800781 233.75 56.949219 233.582031 56.101562 C 233.414062 55.257812 233.207031 54.421875 232.953125 53.597656 C 232.703125 52.773438 232.414062 51.964844 232.085938 51.167969 C 231.753906 50.371094 231.386719 49.59375 230.980469 48.835938 C 230.574219 48.074219 230.132812 47.335938 229.65625 46.621094 C 229.175781 45.90625 228.664062 45.214844 228.117188 44.546875 C 227.570312 43.882812 226.992188 43.246094 226.382812 42.636719 C 225.773438 42.027344 225.136719 41.449219 224.46875 40.902344 C 223.804688 40.355469 223.113281 39.84375 222.398438 39.363281 C 221.679688 38.886719 220.941406 38.441406 220.183594 38.035156 C 219.421875 37.628906 218.644531 37.261719 217.847656 36.933594 C 217.054688 36.601562 216.242188 36.3125 215.417969 36.0625 C 214.59375 35.8125 213.761719 35.605469 212.914062 35.4375 C 212.070312 35.269531 211.21875 35.140625 210.363281 35.058594 C 209.503906 34.972656 208.644531 34.929688 207.785156 34.929688 L 60.476562 34.929688 C 59.617188 34.929688 58.757812 34.972656 57.898438 35.058594 C 57.042969 35.140625 56.191406 35.269531 55.347656 35.4375 C 54.5 35.605469 53.667969 35.8125 52.84375 36.0625 C 52.019531 36.3125 51.207031 36.601562 50.410156 36.933594 C 49.617188 37.261719 48.839844 37.628906 48.078125 38.035156 C 47.320312 38.441406 46.582031 38.886719 45.863281 39.363281 C 45.148438 39.84375 44.457031 40.355469 43.789062 40.902344 C 43.125 41.449219 42.488281 42.027344 41.878906 42.636719 C 41.269531 43.246094 40.691406 43.882812 40.144531 44.546875 C 39.597656 45.214844 39.085938 45.90625 38.605469 46.621094 C 38.128906 47.335938 37.6875 48.074219 37.28125 48.835938 C 36.875 49.59375 36.503906 50.371094 36.175781 51.167969 C 35.847656 51.964844 35.554688 52.773438 35.304688 53.597656 C 35.054688 54.421875 34.847656 55.257812 34.679688 56.101562 C 34.511719 56.949219 34.382812 57.800781 34.300781 58.65625 C 34.214844 59.515625 34.171875 60.375 34.171875 61.234375 L 34.171875 313.757812 C 34.171875 314.621094 34.214844 315.480469 34.300781 316.335938 C 34.382812 317.195312 34.511719 318.042969 34.679688 318.890625 C 34.847656 319.734375 35.054688 320.570312 35.304688 321.394531 C 35.554688 322.21875 35.847656 323.027344 36.175781 323.824219 C 36.503906 324.621094 36.875 325.398438 37.28125 326.15625 C 37.6875 326.917969 38.128906 327.65625 38.605469 328.371094 C 39.085938 329.089844 39.597656 329.78125 40.144531 330.445312 C 40.691406 331.113281 41.269531 331.75 41.878906 332.359375 C 42.488281 332.96875 43.125 333.546875 43.789062 334.089844 C 44.457031 334.636719 45.148438 335.152344 45.863281 335.628906 C 46.582031 336.109375 47.320312 336.550781 48.078125 336.957031 C 48.839844 337.363281 49.617188 337.730469 50.410156 338.058594 C 51.207031 338.390625 52.019531 338.679688 52.84375 338.929688 C 53.667969 339.179688 54.5 339.390625 55.347656 339.558594 C 56.191406 339.726562 57.042969 339.851562 57.898438 339.9375 C 58.757812 340.019531 59.617188 340.0625 60.476562 340.0625 L 207.785156 340.0625 C 208.644531 340.0625 209.503906 340.019531 210.363281 339.9375 C 211.21875 339.851562 212.070312 339.726562 212.914062 339.558594 C 213.761719 339.390625 214.59375 339.179688 215.417969 338.929688 C 216.242188 338.679688 217.054688 338.390625 217.847656 338.058594 C 218.644531 337.730469 219.421875 337.363281 220.183594 336.957031 C 220.941406 336.550781 221.679688 336.109375 222.398438 335.628906 C 223.113281 335.152344 223.804688 334.636719 224.46875 334.089844 C 225.136719 333.546875 225.773438 332.96875 226.382812 332.359375 C 226.992188 331.75 227.570312 331.113281 228.117188 330.445312 C 228.664062 329.78125 229.175781 329.089844 229.65625 328.371094 C 230.132812 327.65625 230.574219 326.917969 230.980469 326.15625 C 231.386719 325.398438 231.753906 324.621094 232.085938 323.824219 C 232.414062 323.027344 232.703125 322.21875 232.953125 321.394531 C 233.207031 320.570312 233.414062 319.734375 233.582031 318.890625 C 233.75 318.042969 233.875 317.195312 233.960938 316.335938 C 234.046875 315.480469 234.085938 314.621094 234.085938 313.757812 L 234.085938 292.714844 C 234.085938 291.679688 233.988281 290.652344 233.785156 289.636719 C 233.582031 288.617188 233.28125 287.632812 232.886719 286.675781 C 232.488281 285.71875 232.003906 284.808594 231.429688 283.945312 C 230.851562 283.085938 230.199219 282.289062 229.464844 281.554688 C 228.730469 280.820312 227.933594 280.167969 227.074219 279.589844 C 226.210938 279.015625 225.300781 278.53125 224.34375 278.132812 C 223.386719 277.738281 222.402344 277.4375 221.382812 277.234375 C 220.367188 277.03125 219.339844 276.933594 218.304688 276.933594 Z M 218.304688 276.933594 " fill-opacity="1" fill-rule="nonzero"/></g></svg>