<svg xmlns="http://www.w3.org/2000/svg" xmlns:xlink="http://www.w3.org/1999/xlink" width="500" zoomAndPan="magnify" viewBox="0 0 375 374.999991" height="500" preserveAspectRatio="xMidYMid meet" version="1.0"><defs><g/><clipPath id="df7a960485"><path d="M 15.324219 123.851562 L 132 123.851562 L 132 240 L 15.324219 240 Z M 15.324219 123.851562 " clip-rule="nonzero"/></clipPath><clipPath id="112047e5ce"><path d="M 94 196 L 139.824219 196 L 139.824219 251.351562 L 94 251.351562 Z M 94 196 " clip-rule="nonzero"/></clipPath></defs><rect x="-37.5" width="450" fill="#ffffff" y="-37.499999" height="449.999989" fill-opacity="1"/><rect x="-37.5" width="450" fill="#00712d" y="-37.499999" height="449.999989" fill-opacity="1"/><g clip-path="url(#df7a960485)"><path fill="#ffffff" d="M 71.261719 154.75 C 64.367188 154.632812 57.695312 153.933594 51.535156 152.71875 C 52.605469 149.351562 53.867188 146.1875 55.316406 143.300781 C 59.742188 134.503906 65.339844 129.261719 71.261719 128.257812 Z M 71.261719 179.832031 L 47.328125 179.832031 C 47.480469 171.652344 48.523438 163.804688 50.371094 156.730469 C 56.90625 158.046875 63.972656 158.796875 71.261719 158.917969 Z M 71.261719 205.042969 C 63.984375 205.164062 56.929688 205.914062 50.402344 207.226562 C 48.535156 200.117188 47.480469 192.226562 47.328125 184 L 71.261719 184 Z M 71.261719 235.574219 C 65.339844 234.570312 59.742188 229.324219 55.316406 220.527344 C 53.886719 217.679688 52.636719 214.558594 51.574219 211.234375 C 57.722656 210.023438 64.382812 209.328125 71.261719 209.210938 Z M 32.847656 217.347656 C 37.066406 215.222656 41.996094 213.46875 47.425781 212.140625 C 50.375 221.59375 54.695312 229.207031 59.894531 234.0625 C 49.253906 231.316406 39.882812 225.378906 32.847656 217.347656 Z M 30.164062 214.046875 C 23.855469 205.59375 19.980469 195.230469 19.550781 184 L 43.160156 184 C 43.3125 192.710938 44.417969 200.875 46.292969 208.132812 C 40.257812 209.621094 34.792969 211.617188 30.164062 214.046875 Z M 30.09375 149.882812 C 34.730469 152.324219 40.207031 154.328125 46.257812 155.820312 C 44.40625 163.046875 43.3125 171.167969 43.160156 179.832031 L 19.550781 179.832031 C 19.980469 168.644531 23.828125 158.316406 30.09375 149.882812 Z M 59.894531 129.769531 C 54.671875 134.644531 50.339844 142.304688 47.386719 151.816406 C 41.941406 150.480469 36.996094 148.714844 32.769531 146.578125 C 39.8125 138.5 49.210938 132.527344 59.894531 129.769531 Z M 75.429688 158.917969 C 82.71875 158.796875 89.785156 158.042969 96.320312 156.726562 C 98.167969 163.804688 99.214844 171.652344 99.367188 179.832031 L 75.429688 179.832031 Z M 75.429688 128.257812 C 81.351562 129.261719 86.949219 134.503906 91.375 143.300781 C 92.824219 146.1875 94.085938 149.347656 95.160156 152.71875 C 88.996094 153.933594 82.324219 154.632812 75.429688 154.75 Z M 113.917969 146.570312 C 109.691406 148.710938 104.75 150.476562 99.304688 151.8125 C 96.351562 142.300781 92.015625 134.640625 86.796875 129.769531 C 97.476562 132.523438 106.875 138.496094 113.917969 146.570312 Z M 116.59375 149.875 C 122.863281 158.3125 126.710938 168.640625 127.140625 179.832031 L 103.535156 179.832031 C 103.382812 171.167969 102.285156 163.046875 100.433594 155.820312 C 106.484375 154.324219 111.957031 152.320312 116.59375 149.875 Z M 86.796875 234.0625 C 90.160156 230.921875 93.15625 226.617188 95.652344 221.414062 L 93.878906 214.757812 C 93.117188 216.777344 92.289062 218.714844 91.375 220.527344 C 86.949219 229.324219 81.351562 234.570312 75.429688 235.574219 L 75.429688 209.210938 C 81.464844 209.316406 87.328125 209.863281 92.828125 210.8125 L 91.65625 206.40625 C 86.46875 205.601562 81.015625 205.136719 75.429688 205.042969 L 75.429688 184 L 99.367188 184 C 99.304688 187.222656 99.101562 190.390625 98.769531 193.480469 L 102.726562 195.625 C 103.183594 191.886719 103.464844 188.003906 103.535156 184 L 127.140625 184 C 126.839844 191.816406 124.871094 199.210938 121.574219 205.835938 L 125.234375 207.820312 C 129.148438 200.015625 131.363281 191.222656 131.363281 181.914062 C 131.363281 149.925781 105.335938 123.898438 73.347656 123.898438 C 41.355469 123.898438 15.328125 149.925781 15.328125 181.914062 C 15.328125 213.90625 41.355469 239.933594 73.347656 239.933594 C 82.546875 239.933594 91.25 237.769531 98.988281 233.941406 L 97.890625 229.824219 C 94.394531 231.625 90.683594 233.058594 86.796875 234.0625 " fill-opacity="1" fill-rule="nonzero"/></g><g clip-path="url(#112047e5ce)"><path fill="#ffffff" d="M 129.851562 251.09375 L 116.417969 234.042969 L 107.507812 247.046875 L 94.039062 196.449219 L 140.070312 221.386719 L 125.382812 227.054688 L 138.777344 244.0625 L 129.851562 251.09375 " fill-opacity="1" fill-rule="nonzero"/></g><g fill="#ffffff" fill-opacity="1"><g transform="translate(140.074668, 209.249986)"><g><path d="M 25.40625 -38.71875 C 23.71875 -38.71875 22.054688 -38.210938 20.421875 -37.203125 C 18.796875 -36.191406 17.285156 -34.796875 15.890625 -33.015625 C 14.503906 -31.242188 13.273438 -29.210938 12.203125 -26.921875 C 11.140625 -24.628906 10.304688 -22.179688 9.703125 -19.578125 C 9.097656 -16.972656 8.796875 -14.351562 8.796875 -11.71875 C 8.796875 -8.125 9.5 -5.304688 10.90625 -3.265625 C 12.320312 -1.234375 14.148438 -0.21875 16.390625 -0.21875 C 18.078125 -0.21875 19.734375 -0.722656 21.359375 -1.734375 C 22.992188 -2.742188 24.507812 -4.132812 25.90625 -5.90625 C 27.300781 -7.6875 28.53125 -9.722656 29.59375 -12.015625 C 30.65625 -14.304688 31.488281 -16.753906 32.09375 -19.359375 C 32.695312 -21.960938 33 -24.582031 33 -27.21875 C 33 -30.8125 32.289062 -33.625 30.875 -35.65625 C 29.46875 -37.695312 27.644531 -38.71875 25.40625 -38.71875 Z M 2.96875 -12.4375 C 2.96875 -14.851562 3.316406 -17.34375 4.015625 -19.90625 C 4.710938 -22.476562 5.71875 -24.9375 7.03125 -27.28125 C 8.351562 -29.625 9.957031 -31.726562 11.84375 -33.59375 C 13.738281 -35.46875 15.859375 -36.953125 18.203125 -38.046875 C 20.546875 -39.148438 23.113281 -39.703125 25.90625 -39.703125 C 29.976562 -39.703125 33.160156 -38.554688 35.453125 -36.265625 C 37.742188 -33.972656 38.890625 -30.703125 38.890625 -26.453125 C 38.890625 -24.035156 38.53125 -21.550781 37.8125 -19 C 37.09375 -16.457031 36.070312 -14.007812 34.75 -11.65625 C 33.4375 -9.3125 31.832031 -7.203125 29.9375 -5.328125 C 28.050781 -3.460938 25.925781 -1.976562 23.5625 -0.875 C 21.195312 0.21875 18.640625 0.765625 15.890625 0.765625 C 11.828125 0.765625 8.65625 -0.378906 6.375 -2.671875 C 4.101562 -4.960938 2.96875 -8.21875 2.96875 -12.4375 Z M 2.96875 -12.4375 "/></g></g></g><g fill="#ffffff" fill-opacity="1"><g transform="translate(180.166764, 209.249986)"><g><path d="M 22.65625 -38.890625 C 26.144531 -38.890625 28.738281 -38.242188 30.4375 -36.953125 C 32.144531 -35.671875 33 -33.96875 33 -31.84375 C 33 -29.976562 32.445312 -28.300781 31.34375 -26.8125 C 30.25 -25.320312 28.835938 -24.054688 27.109375 -23.015625 C 25.390625 -21.972656 23.59375 -21.15625 21.71875 -20.5625 C 25.09375 -20.019531 27.441406 -18.929688 28.765625 -17.296875 C 30.085938 -15.660156 30.75 -13.765625 30.75 -11.609375 C 30.75 -9.628906 30.269531 -7.914062 29.3125 -6.46875 C 28.363281 -5.019531 27.097656 -3.816406 25.515625 -2.859375 C 23.941406 -1.910156 22.179688 -1.195312 20.234375 -0.71875 C 18.296875 -0.238281 16.335938 0 14.359375 0 C 12.960938 0 11.507812 -0.0234375 10 -0.078125 C 8.5 -0.140625 6.796875 -0.171875 4.890625 -0.171875 C 4.046875 -0.171875 3.203125 -0.160156 2.359375 -0.140625 C 1.515625 -0.117188 0.734375 -0.0976562 0.015625 -0.078125 C -0.691406 -0.0664062 -1.300781 -0.0390625 -1.8125 0 L -1.59375 -1.09375 C -0.34375 -1.164062 0.625 -1.3125 1.3125 -1.53125 C 2.007812 -1.757812 2.5625 -2.203125 2.96875 -2.859375 C 3.375 -3.515625 3.738281 -4.503906 4.0625 -5.828125 L 11.328125 -33.109375 C 11.585938 -34.210938 11.734375 -35.101562 11.765625 -35.78125 C 11.804688 -36.457031 11.5625 -36.96875 11.03125 -37.3125 C 10.5 -37.664062 9.515625 -37.84375 8.078125 -37.84375 L 8.359375 -38.9375 C 8.867188 -38.90625 9.472656 -38.878906 10.171875 -38.859375 C 10.867188 -38.835938 11.628906 -38.816406 12.453125 -38.796875 C 13.273438 -38.785156 14.09375 -38.78125 14.90625 -38.78125 C 16.1875 -38.78125 17.457031 -38.796875 18.71875 -38.828125 C 19.988281 -38.867188 21.300781 -38.890625 22.65625 -38.890625 Z M 12.203125 -19.75 L 12.4375 -20.6875 L 16.71875 -20.6875 C 18.957031 -20.6875 20.882812 -21.1875 22.5 -22.1875 C 24.113281 -23.195312 25.359375 -24.523438 26.234375 -26.171875 C 27.117188 -27.828125 27.5625 -29.585938 27.5625 -31.453125 C 27.5625 -33.617188 27.09375 -35.222656 26.15625 -36.265625 C 25.21875 -37.316406 23.703125 -37.84375 21.609375 -37.84375 C 19.992188 -37.84375 18.859375 -37.59375 18.203125 -37.09375 C 17.546875 -36.601562 17.015625 -35.550781 16.609375 -33.9375 L 9.1875 -5.828125 C 8.894531 -4.734375 8.738281 -3.84375 8.71875 -3.15625 C 8.695312 -2.476562 8.925781 -1.992188 9.40625 -1.703125 C 9.882812 -1.410156 10.742188 -1.265625 11.984375 -1.265625 C 15.210938 -1.265625 17.789062 -1.703125 19.71875 -2.578125 C 21.644531 -3.460938 23.046875 -4.738281 23.921875 -6.40625 C 24.804688 -8.070312 25.25 -10.082031 25.25 -12.4375 C 25.25 -13.96875 24.972656 -15.273438 24.421875 -16.359375 C 23.867188 -17.441406 23.015625 -18.273438 21.859375 -18.859375 C 20.703125 -19.453125 19.207031 -19.75 17.375 -19.75 Z M 12.203125 -19.75 "/></g></g></g><g fill="#ffffff" fill-opacity="1"><g transform="translate(214.924242, 209.249986)"><g><path d="M 11.171875 -15.625 L 11.4375 -16.71875 L 13.921875 -16.71875 C 16.628906 -16.71875 18.914062 -17.09375 20.78125 -17.84375 C 22.65625 -18.59375 24.160156 -19.644531 25.296875 -21 C 26.429688 -22.363281 27.253906 -23.929688 27.765625 -25.703125 C 28.285156 -27.484375 28.546875 -29.398438 28.546875 -31.453125 C 28.546875 -33.617188 28.003906 -35.222656 26.921875 -36.265625 C 25.835938 -37.316406 24.050781 -37.84375 21.5625 -37.84375 C 20.5 -37.84375 19.644531 -37.703125 19 -37.421875 C 18.363281 -37.148438 17.851562 -36.675781 17.46875 -36 C 17.082031 -35.320312 16.722656 -34.359375 16.390625 -33.109375 L 9.125 -5.828125 C 8.832031 -4.691406 8.664062 -3.785156 8.625 -3.109375 C 8.59375 -2.429688 8.84375 -1.9375 9.375 -1.625 C 9.90625 -1.3125 10.90625 -1.132812 12.375 -1.09375 L 12.15625 0 C 11.3125 -0.0703125 10.285156 -0.117188 9.078125 -0.140625 C 7.867188 -0.160156 6.617188 -0.171875 5.328125 -0.171875 C 3.898438 -0.171875 2.546875 -0.160156 1.265625 -0.140625 C -0.015625 -0.117188 -1.039062 -0.0703125 -1.8125 0 L -1.59375 -1.09375 C -0.34375 -1.164062 0.625 -1.3125 1.3125 -1.53125 C 2.007812 -1.757812 2.5625 -2.203125 2.96875 -2.859375 C 3.375 -3.515625 3.738281 -4.503906 4.0625 -5.828125 L 11.328125 -33.109375 C 11.660156 -34.285156 11.816406 -35.210938 11.796875 -35.890625 C 11.773438 -36.566406 11.488281 -37.0625 10.9375 -37.375 C 10.394531 -37.6875 9.441406 -37.84375 8.078125 -37.84375 L 8.359375 -38.9375 C 9.085938 -38.90625 10.09375 -38.867188 11.375 -38.828125 C 12.664062 -38.796875 13.914062 -38.78125 15.125 -38.78125 C 16.445312 -38.78125 17.773438 -38.796875 19.109375 -38.828125 C 20.453125 -38.867188 21.800781 -38.890625 23.15625 -38.890625 C 26.851562 -38.890625 29.597656 -38.125 31.390625 -36.59375 C 33.191406 -35.070312 34.09375 -33.066406 34.09375 -30.578125 C 34.09375 -27.722656 33.222656 -25.164062 31.484375 -22.90625 C 29.742188 -20.65625 27.316406 -18.878906 24.203125 -17.578125 C 21.085938 -16.273438 17.472656 -15.625 13.359375 -15.625 Z M 11.171875 -15.625 "/></g></g></g><g fill="#ffffff" fill-opacity="1"><g transform="translate(247.31689, 209.249986)"><g><path d="M 28.59375 -25.953125 L 12.984375 0.28125 L 12.09375 0.28125 L 7.75 -34.3125 C 7.570312 -35.75 7.171875 -36.6875 6.546875 -37.125 C 5.921875 -37.5625 5.316406 -37.800781 4.734375 -37.84375 L 4.953125 -38.9375 C 5.679688 -38.90625 6.515625 -38.867188 7.453125 -38.828125 C 8.390625 -38.796875 9.367188 -38.78125 10.390625 -38.78125 C 11.597656 -38.78125 12.722656 -38.796875 13.765625 -38.828125 C 14.816406 -38.867188 15.671875 -38.90625 16.328125 -38.9375 L 16.109375 -37.84375 C 14.867188 -37.769531 13.988281 -37.4375 13.46875 -36.84375 C 12.957031 -36.257812 12.8125 -35.050781 13.03125 -33.21875 L 16.171875 -6.484375 L 15.671875 -6.265625 L 28.109375 -27.28125 Z M 46.359375 -30.03125 C 47.421875 -32.15625 48.015625 -33.765625 48.140625 -34.859375 C 48.273438 -35.960938 47.992188 -36.722656 47.296875 -37.140625 C 46.597656 -37.566406 45.476562 -37.800781 43.9375 -37.84375 L 44.21875 -38.9375 C 44.914062 -38.90625 45.617188 -38.878906 46.328125 -38.859375 C 47.046875 -38.835938 47.765625 -38.816406 48.484375 -38.796875 C 49.203125 -38.785156 49.867188 -38.78125 50.484375 -38.78125 C 51.441406 -38.78125 52.234375 -38.796875 52.859375 -38.828125 C 53.484375 -38.867188 54.085938 -38.90625 54.671875 -38.9375 L 54.390625 -37.84375 C 53.878906 -37.726562 53.328125 -37.523438 52.734375 -37.234375 C 52.148438 -36.941406 51.554688 -36.460938 50.953125 -35.796875 C 50.347656 -35.140625 49.753906 -34.226562 49.171875 -33.0625 L 32.71875 0.28125 L 31.84375 0.28125 L 26.40625 -34.3125 C 26.175781 -35.707031 25.832031 -36.632812 25.375 -37.09375 C 24.914062 -37.550781 24.429688 -37.800781 23.921875 -37.84375 L 24.140625 -38.9375 C 24.804688 -38.90625 25.5625 -38.867188 26.40625 -38.828125 C 27.25 -38.796875 28.128906 -38.78125 29.046875 -38.78125 C 30.472656 -38.78125 31.804688 -38.796875 33.046875 -38.828125 C 34.296875 -38.867188 35.304688 -38.90625 36.078125 -38.9375 L 35.859375 -37.84375 C 33.953125 -37.769531 32.703125 -37.457031 32.109375 -36.90625 C 31.523438 -36.351562 31.382812 -35.125 31.6875 -33.21875 L 35.6875 -7.703125 L 35.3125 -7.59375 Z M 46.359375 -30.03125 "/></g></g></g><g fill="#ffffff" fill-opacity="1"><g transform="translate(296.923294, 209.249986)"><g><path d="M 29.421875 -11.546875 C 29.203125 -10.960938 28.984375 -10.285156 28.765625 -9.515625 C 28.546875 -8.742188 28.304688 -7.921875 28.046875 -7.046875 C 27.867188 -6.347656 27.628906 -5.347656 27.328125 -4.046875 C 27.035156 -2.742188 26.78125 -1.394531 26.5625 0 C 24.695312 -0.0703125 22.585938 -0.117188 20.234375 -0.140625 C 17.890625 -0.160156 15.800781 -0.171875 13.96875 -0.171875 C 13.164062 -0.171875 12.128906 -0.171875 10.859375 -0.171875 C 9.597656 -0.171875 8.234375 -0.160156 6.765625 -0.140625 C 5.296875 -0.117188 3.8125 -0.0976562 2.3125 -0.078125 C 0.8125 -0.0664062 -0.597656 -0.0390625 -1.921875 0 L -1.65625 -1.09375 C -0.40625 -1.164062 0.566406 -1.3125 1.265625 -1.53125 C 1.960938 -1.757812 2.503906 -2.203125 2.890625 -2.859375 C 3.273438 -3.515625 3.648438 -4.503906 4.015625 -5.828125 L 11.328125 -33.109375 C 11.691406 -34.460938 11.847656 -35.457031 11.796875 -36.09375 C 11.742188 -36.738281 11.429688 -37.179688 10.859375 -37.421875 C 10.296875 -37.660156 9.390625 -37.800781 8.140625 -37.84375 L 8.421875 -38.9375 C 9.179688 -38.90625 10.1875 -38.867188 11.4375 -38.828125 C 12.6875 -38.796875 14.023438 -38.78125 15.453125 -38.78125 C 16.734375 -38.78125 18.003906 -38.796875 19.265625 -38.828125 C 20.535156 -38.867188 21.59375 -38.90625 22.4375 -38.9375 L 22.171875 -37.84375 C 20.921875 -37.800781 19.945312 -37.660156 19.25 -37.421875 C 18.550781 -37.179688 18 -36.738281 17.59375 -36.09375 C 17.195312 -35.457031 16.8125 -34.460938 16.4375 -33.109375 L 9.125 -5.828125 C 8.757812 -4.503906 8.601562 -3.515625 8.65625 -2.859375 C 8.71875 -2.203125 9.039062 -1.769531 9.625 -1.5625 C 10.207031 -1.363281 11.125 -1.265625 12.375 -1.265625 L 16.390625 -1.265625 C 18.703125 -1.265625 20.546875 -1.59375 21.921875 -2.25 C 23.296875 -2.914062 24.445312 -4 25.375 -5.5 C 26.3125 -7 27.238281 -9.015625 28.15625 -11.546875 Z M 29.421875 -11.546875 "/></g></g></g><g fill="#ffffff" fill-opacity="1"><g transform="translate(329.150953, 209.249986)"><g><path d="M 31.6875 -39.328125 C 31.3125 -38.367188 30.820312 -36.984375 30.21875 -35.171875 C 29.613281 -33.359375 29.019531 -31.003906 28.4375 -28.109375 L 27.328125 -28.109375 C 27.441406 -28.617188 27.523438 -29.148438 27.578125 -29.703125 C 27.640625 -30.253906 27.671875 -30.765625 27.671875 -31.234375 C 27.671875 -32.597656 27.398438 -33.835938 26.859375 -34.953125 C 26.328125 -36.066406 25.492188 -36.960938 24.359375 -37.640625 C 23.222656 -38.328125 21.722656 -38.671875 19.859375 -38.671875 C 17.660156 -38.671875 15.828125 -38.097656 14.359375 -36.953125 C 12.890625 -35.816406 12.15625 -34.0625 12.15625 -31.6875 C 12.15625 -30.289062 12.492188 -28.992188 13.171875 -27.796875 C 13.847656 -26.609375 14.707031 -25.472656 15.75 -24.390625 C 16.800781 -23.304688 17.921875 -22.222656 19.109375 -21.140625 C 20.304688 -20.066406 21.425781 -18.957031 22.46875 -17.8125 C 23.507812 -16.675781 24.367188 -15.472656 25.046875 -14.203125 C 25.722656 -12.941406 26.0625 -11.546875 26.0625 -10.015625 C 26.0625 -8.109375 25.640625 -6.472656 24.796875 -5.109375 C 23.960938 -3.753906 22.863281 -2.644531 21.5 -1.78125 C 20.144531 -0.925781 18.648438 -0.289062 17.015625 0.125 C 15.390625 0.550781 13.769531 0.765625 12.15625 0.765625 C 10.6875 0.765625 9.457031 0.625 8.46875 0.34375 C 7.476562 0.0703125 6.648438 -0.257812 5.984375 -0.65625 C 5.328125 -1.0625 4.78125 -1.429688 4.34375 -1.765625 C 3.9375 -2.085938 3.554688 -2.300781 3.203125 -2.40625 C 2.859375 -2.519531 2.578125 -2.578125 2.359375 -2.578125 C 1.890625 -2.578125 1.5 -2.328125 1.1875 -1.828125 C 0.875 -1.335938 0.515625 -0.597656 0.109375 0.390625 L -0.984375 0.390625 C -0.660156 -0.421875 -0.316406 -1.359375 0.046875 -2.421875 C 0.421875 -3.484375 0.828125 -4.847656 1.265625 -6.515625 C 1.703125 -8.179688 2.195312 -10.28125 2.75 -12.8125 L 3.84375 -12.8125 C 3.695312 -12.039062 3.566406 -11.296875 3.453125 -10.578125 C 3.347656 -9.867188 3.316406 -9.128906 3.359375 -8.359375 C 3.460938 -5.867188 4.226562 -3.90625 5.65625 -2.46875 C 7.09375 -1.039062 9.3125 -0.328125 12.3125 -0.328125 C 14.695312 -0.328125 16.640625 -0.875 18.140625 -1.96875 C 19.648438 -3.070312 20.40625 -4.816406 20.40625 -7.203125 C 20.40625 -8.742188 20.101562 -10.117188 19.5 -11.328125 C 18.894531 -12.535156 18.101562 -13.660156 17.125 -14.703125 C 16.15625 -15.753906 15.128906 -16.773438 14.046875 -17.765625 C 12.972656 -18.753906 11.945312 -19.789062 10.96875 -20.875 C 10 -21.957031 9.210938 -23.15625 8.609375 -24.46875 C 8.003906 -25.789062 7.703125 -27.296875 7.703125 -28.984375 C 7.703125 -30.742188 8.050781 -32.289062 8.75 -33.625 C 9.445312 -34.96875 10.367188 -36.085938 11.515625 -36.984375 C 12.671875 -37.878906 13.960938 -38.554688 15.390625 -39.015625 C 16.828125 -39.472656 18.296875 -39.703125 19.796875 -39.703125 C 21.335938 -39.703125 22.65625 -39.519531 23.75 -39.15625 C 24.851562 -38.789062 25.921875 -38.207031 26.953125 -37.40625 C 27.390625 -37.070312 27.753906 -36.820312 28.046875 -36.65625 C 28.335938 -36.488281 28.578125 -36.40625 28.765625 -36.40625 C 29.273438 -36.40625 29.878906 -37.378906 30.578125 -39.328125 Z M 31.6875 -39.328125 "/></g></g></g></svg>