<svg xmlns="http://www.w3.org/2000/svg" xmlns:xlink="http://www.w3.org/1999/xlink" width="500" zoomAndPan="magnify" viewBox="0 0 375 374.999991" height="500" preserveAspectRatio="xMidYMid meet" version="1.0"><defs><clipPath id="35b9d31f46"><path d="M 57.066406 20.039062 L 317.933594 20.039062 L 317.933594 354.960938 L 57.066406 354.960938 Z M 57.066406 20.039062 " clip-rule="nonzero"/></clipPath></defs><g clip-path="url(#35b9d31f46)"><path fill="#ffffff" d="M 192.980469 180.074219 L 120.734375 180.074219 L 120.734375 155.84375 L 249.847656 155.84375 C 247.867188 159.082031 245.5625 161.992188 242.933594 164.566406 C 232.414062 174.855469 215.605469 180.074219 192.980469 180.074219 Z M 120.734375 109.675781 L 258.421875 109.675781 C 258.65625 112.351562 258.800781 115.089844 258.800781 117.925781 C 258.800781 121.761719 258.617188 125.425781 258.246094 128.917969 L 120.734375 128.917969 Z M 120.734375 58.074219 L 192.292969 58.074219 C 211.3125 58.074219 224.6875 59.882812 232.039062 63.441406 C 239.285156 66.957031 245.550781 73.460938 250.679688 82.75 L 120.734375 82.75 Z M 271.769531 189.726562 C 279.648438 179.96875 285.503906 168.636719 289.34375 155.84375 L 317.933594 155.84375 L 317.933594 128.917969 L 294.253906 128.917969 C 294.589844 124.75 294.773438 120.484375 294.773438 116.089844 C 294.773438 113.917969 294.71875 111.785156 294.628906 109.675781 L 317.933594 109.675781 L 317.933594 82.75 L 290.742188 82.75 C 288.398438 73.847656 285.039062 65.714844 280.660156 58.433594 C 271.3125 42.914062 258.632812 32.140625 242.972656 26.414062 C 231.472656 22.183594 213.339844 20.039062 189.078125 20.039062 L 85.90625 20.039062 L 85.90625 82.75 L 57.066406 82.75 L 57.066406 109.675781 L 85.90625 109.675781 L 85.90625 128.917969 L 57.066406 128.917969 L 57.066406 155.84375 L 85.90625 155.84375 L 85.90625 354.960938 L 120.734375 354.960938 L 120.734375 218.113281 L 192.292969 218.113281 C 229.808594 218.113281 256.550781 208.5625 271.769531 189.726562 " fill-opacity="1" fill-rule="nonzero"/></g></svg>