<svg xmlns="http://www.w3.org/2000/svg" xmlns:xlink="http://www.w3.org/1999/xlink" width="500" zoomAndPan="magnify" viewBox="0 0 375 374.999991" height="500" preserveAspectRatio="xMidYMid meet" version="1.0"><defs><clipPath id="f2268dc3c2"><path d="M 43.40625 195 L 337 195 L 337 375 L 43.40625 375 Z M 43.40625 195 " clip-rule="nonzero"/></clipPath></defs><rect x="-37.5" width="450" fill="#ffffff" y="-37.499999" height="449.999989" fill-opacity="1"/><rect x="-37.5" width="450" fill="#d1d1d1" y="-37.499999" height="449.999989" fill-opacity="1"/><path fill="#27aae1" d="M 271.738281 98.429688 C 271.738281 99.761719 271.703125 101.089844 271.640625 102.417969 C 271.574219 103.75 271.476562 105.074219 271.347656 106.398438 C 271.214844 107.722656 271.050781 109.042969 270.855469 110.359375 C 270.660156 111.675781 270.433594 112.984375 270.175781 114.289062 C 269.914062 115.59375 269.625 116.894531 269.300781 118.183594 C 268.976562 119.472656 268.621094 120.757812 268.234375 122.027344 C 267.847656 123.300781 267.433594 124.566406 266.984375 125.816406 C 266.535156 127.070312 266.054688 128.3125 265.546875 129.539062 C 265.039062 130.769531 264.5 131.984375 263.929688 133.1875 C 263.359375 134.390625 262.761719 135.578125 262.132812 136.753906 C 261.507812 137.925781 260.851562 139.082031 260.167969 140.222656 C 259.480469 141.367188 258.769531 142.488281 258.03125 143.59375 C 257.292969 144.703125 256.523438 145.789062 255.730469 146.859375 C 254.941406 147.925781 254.121094 148.976562 253.277344 150.003906 C 252.433594 151.03125 251.5625 152.039062 250.667969 153.023438 C 249.773438 154.011719 248.859375 154.972656 247.917969 155.914062 C 246.976562 156.855469 246.011719 157.773438 245.027344 158.667969 C 244.039062 159.558594 243.03125 160.429688 242.003906 161.273438 C 240.972656 162.117188 239.925781 162.933594 238.855469 163.726562 C 237.785156 164.519531 236.699219 165.285156 235.59375 166.023438 C 234.484375 166.765625 233.359375 167.476562 232.21875 168.160156 C 231.078125 168.84375 229.921875 169.5 228.746094 170.125 C 227.574219 170.753906 226.382812 171.351562 225.179688 171.921875 C 223.976562 172.488281 222.761719 173.027344 221.53125 173.539062 C 220.300781 174.046875 219.058594 174.523438 217.808594 174.972656 C 216.554688 175.421875 215.289062 175.839844 214.015625 176.226562 C 212.742188 176.609375 211.460938 176.964844 210.167969 177.289062 C 208.878906 177.613281 207.578125 177.902344 206.273438 178.164062 C 204.96875 178.421875 203.65625 178.652344 202.339844 178.847656 C 201.023438 179.039062 199.703125 179.203125 198.378906 179.335938 C 197.054688 179.464844 195.726562 179.5625 194.398438 179.628906 C 193.070312 179.691406 191.738281 179.726562 190.40625 179.726562 C 189.078125 179.726562 187.746094 179.691406 186.417969 179.628906 C 185.085938 179.5625 183.761719 179.464844 182.4375 179.335938 C 181.113281 179.203125 179.789062 179.039062 178.472656 178.847656 C 177.15625 178.652344 175.847656 178.421875 174.539062 178.164062 C 173.234375 177.902344 171.9375 177.613281 170.644531 177.289062 C 169.355469 176.964844 168.074219 176.609375 166.800781 176.226562 C 165.523438 175.839844 164.261719 175.421875 163.007812 174.972656 C 161.753906 174.523438 160.515625 174.046875 159.285156 173.539062 C 158.054688 173.027344 156.835938 172.488281 155.632812 171.921875 C 154.429688 171.351562 153.242188 170.753906 152.070312 170.125 C 150.894531 169.5 149.738281 168.84375 148.597656 168.160156 C 147.453125 167.476562 146.328125 166.765625 145.222656 166.023438 C 144.117188 165.285156 143.027344 164.519531 141.960938 163.726562 C 140.890625 162.933594 139.839844 162.117188 138.8125 161.273438 C 137.785156 160.429688 136.777344 159.558594 135.789062 158.667969 C 134.804688 157.773438 133.839844 156.855469 132.898438 155.914062 C 131.957031 154.972656 131.039062 154.011719 130.144531 153.023438 C 129.253906 152.039062 128.382812 151.03125 127.539062 150.003906 C 126.695312 148.976562 125.875 147.925781 125.082031 146.859375 C 124.289062 145.789062 123.523438 144.703125 122.785156 143.59375 C 122.042969 142.488281 121.332031 141.367188 120.648438 140.222656 C 119.964844 139.082031 119.308594 137.925781 118.679688 136.753906 C 118.054688 135.578125 117.457031 134.390625 116.886719 133.1875 C 116.316406 131.984375 115.777344 130.769531 115.269531 129.539062 C 114.757812 128.3125 114.28125 127.070312 113.832031 125.816406 C 113.382812 124.566406 112.964844 123.300781 112.578125 122.027344 C 112.195312 120.757812 111.839844 119.472656 111.515625 118.183594 C 111.191406 116.894531 110.898438 115.59375 110.640625 114.289062 C 110.378906 112.984375 110.152344 111.675781 109.957031 110.359375 C 109.761719 109.042969 109.601562 107.722656 109.46875 106.398438 C 109.339844 105.074219 109.242188 103.75 109.175781 102.417969 C 109.109375 101.089844 109.078125 99.761719 109.078125 98.429688 C 109.078125 97.101562 109.109375 95.769531 109.175781 94.441406 C 109.242188 93.113281 109.339844 91.785156 109.46875 90.460938 C 109.601562 89.136719 109.761719 87.816406 109.957031 86.503906 C 110.152344 85.1875 110.378906 83.875 110.640625 82.570312 C 110.898438 81.265625 111.191406 79.96875 111.515625 78.675781 C 111.839844 77.386719 112.195312 76.105469 112.578125 74.832031 C 112.964844 73.558594 113.382812 72.296875 113.832031 71.042969 C 114.28125 69.789062 114.757812 68.550781 115.269531 67.320312 C 115.777344 66.089844 116.316406 64.875 116.886719 63.671875 C 117.457031 62.46875 118.054688 61.28125 118.679688 60.109375 C 119.308594 58.933594 119.964844 57.777344 120.648438 56.636719 C 121.332031 55.496094 122.042969 54.371094 122.785156 53.265625 C 123.523438 52.160156 124.289062 51.070312 125.082031 50.003906 C 125.875 48.933594 126.695312 47.886719 127.539062 46.859375 C 128.382812 45.828125 129.253906 44.820312 130.144531 43.835938 C 131.039062 42.851562 131.957031 41.886719 132.898438 40.945312 C 133.839844 40.003906 134.804688 39.089844 135.789062 38.195312 C 136.777344 37.300781 137.785156 36.433594 138.8125 35.589844 C 139.839844 34.746094 140.890625 33.925781 141.960938 33.132812 C 143.027344 32.339844 144.117188 31.574219 145.222656 30.835938 C 146.328125 30.097656 147.453125 29.386719 148.597656 28.703125 C 149.738281 28.015625 150.894531 27.363281 152.070312 26.734375 C 153.242188 26.109375 154.429688 25.507812 155.632812 24.941406 C 156.835938 24.371094 158.054688 23.832031 159.285156 23.324219 C 160.515625 22.816406 161.753906 22.335938 163.007812 21.886719 C 164.261719 21.4375 165.523438 21.023438 166.800781 20.636719 C 168.074219 20.25 169.355469 19.894531 170.644531 19.570312 C 171.9375 19.25 173.234375 18.957031 174.539062 18.699219 C 175.847656 18.4375 177.15625 18.210938 178.472656 18.015625 C 179.789062 17.820312 181.113281 17.65625 182.4375 17.527344 C 183.761719 17.398438 185.085938 17.296875 186.417969 17.234375 C 187.746094 17.167969 189.078125 17.136719 190.40625 17.136719 C 191.738281 17.136719 193.070312 17.167969 194.398438 17.234375 C 195.726562 17.296875 197.054688 17.398438 198.378906 17.527344 C 199.703125 17.65625 201.023438 17.820312 202.339844 18.015625 C 203.65625 18.210938 204.96875 18.4375 206.273438 18.699219 C 207.578125 18.957031 208.878906 19.25 210.167969 19.570312 C 211.460938 19.894531 212.742188 20.25 214.015625 20.636719 C 215.289062 21.023438 216.554688 21.4375 217.808594 21.886719 C 219.058594 22.335938 220.300781 22.816406 221.53125 23.324219 C 222.761719 23.832031 223.976562 24.371094 225.179688 24.941406 C 226.382812 25.507812 227.574219 26.109375 228.746094 26.734375 C 229.921875 27.363281 231.078125 28.015625 232.21875 28.703125 C 233.359375 29.386719 234.484375 30.097656 235.59375 30.835938 C 236.699219 31.574219 237.785156 32.339844 238.855469 33.132812 C 239.925781 33.925781 240.972656 34.746094 242.003906 35.589844 C 243.03125 36.433594 244.039062 37.300781 245.027344 38.195312 C 246.011719 39.089844 246.976562 40.003906 247.917969 40.945312 C 248.859375 41.886719 249.773438 42.851562 250.667969 43.835938 C 251.5625 44.820312 252.433594 45.828125 253.277344 46.859375 C 254.121094 47.886719 254.941406 48.933594 255.730469 50.003906 C 256.523438 51.070312 257.292969 52.160156 258.03125 53.265625 C 258.769531 54.371094 259.480469 55.496094 260.167969 56.636719 C 260.851562 57.777344 261.507812 58.933594 262.132812 60.109375 C 262.761719 61.28125 263.359375 62.46875 263.929688 63.671875 C 264.5 64.875 265.039062 66.089844 265.546875 67.320312 C 266.054688 68.550781 266.535156 69.789062 266.984375 71.042969 C 267.433594 72.296875 267.847656 73.558594 268.234375 74.832031 C 268.621094 76.105469 268.976562 77.386719 269.300781 78.675781 C 269.625 79.96875 269.914062 81.265625 270.175781 82.570312 C 270.433594 83.875 270.660156 85.1875 270.855469 86.503906 C 271.050781 87.816406 271.214844 89.136719 271.347656 90.460938 C 271.476562 91.785156 271.574219 93.113281 271.640625 94.441406 C 271.703125 95.769531 271.738281 97.101562 271.738281 98.429688 Z M 271.738281 98.429688 " fill-opacity="1" fill-rule="nonzero"/><g clip-path="url(#f2268dc3c2)"><path fill="#27aae1" d="M 190.40625 195.378906 C 109.078125 195.378906 43.40625 261.019531 43.40625 342.316406 L 43.40625 380.1875 L 336.902344 380.1875 L 336.902344 342.316406 C 337.40625 261.019531 271.738281 195.378906 190.40625 195.378906 Z M 190.40625 195.378906 " fill-opacity="1" fill-rule="nonzero"/></g></svg>