<svg xmlns="http://www.w3.org/2000/svg" xmlns:xlink="http://www.w3.org/1999/xlink" width="500" zoomAndPan="magnify" viewBox="0 0 375 374.999991" height="500" preserveAspectRatio="xMidYMid meet" version="1.0"><defs><clipPath id="080e6fdefa"><path d="M 25 25.183594 L 303 25.183594 L 303 349.933594 L 25 349.933594 Z M 25 25.183594 " clip-rule="nonzero"/></clipPath><clipPath id="8bf81d72c8"><path d="M 198 141 L 351 141 L 351 349.933594 L 198 349.933594 Z M 198 141 " clip-rule="nonzero"/></clipPath></defs><path fill="#ffffff" d="M 256.679688 60.660156 L 129.972656 60.660156 C 127.183594 60.660156 124.90625 62.941406 124.90625 65.730469 C 124.90625 68.519531 127.183594 70.796875 129.972656 70.796875 L 256.679688 70.796875 C 259.464844 70.796875 261.746094 68.519531 261.746094 65.730469 C 261.746094 62.941406 259.464844 60.660156 256.679688 60.660156 Z M 256.679688 60.660156 " fill-opacity="1" fill-rule="nonzero"/><path fill="#ffffff" d="M 256.679688 80.933594 L 129.972656 80.933594 C 127.183594 80.933594 124.90625 83.214844 124.90625 86.003906 C 124.90625 88.789062 127.183594 91.070312 129.972656 91.070312 L 256.679688 91.070312 C 259.464844 91.070312 261.746094 88.789062 261.746094 86.003906 C 261.746094 83.214844 259.464844 80.933594 256.679688 80.933594 Z M 256.679688 80.933594 " fill-opacity="1" fill-rule="nonzero"/><path fill="#ffffff" d="M 256.679688 101.207031 L 129.972656 101.207031 C 127.183594 101.207031 124.90625 103.488281 124.90625 106.277344 C 124.90625 109.0625 127.183594 111.34375 129.972656 111.34375 L 256.679688 111.34375 C 259.464844 111.34375 261.746094 109.0625 261.746094 106.277344 C 261.746094 103.488281 259.464844 101.207031 256.679688 101.207031 Z M 256.679688 101.207031 " fill-opacity="1" fill-rule="nonzero"/><path fill="#ffffff" d="M 261.746094 126.550781 C 261.746094 123.761719 259.464844 121.480469 256.679688 121.480469 L 129.972656 121.480469 C 127.183594 121.480469 124.90625 123.761719 124.90625 126.550781 C 124.90625 129.335938 127.183594 131.617188 129.972656 131.617188 L 256.679688 131.617188 C 259.464844 131.617188 261.746094 129.335938 261.746094 126.550781 Z M 261.746094 126.550781 " fill-opacity="1" fill-rule="nonzero"/><path fill="#ffffff" d="M 179.640625 272.515625 L 162.410156 289.238281 L 156.328125 283.15625 C 154.300781 281.128906 151.007812 281.128906 149.230469 283.15625 C 147.203125 285.183594 147.203125 288.480469 149.230469 290.253906 L 158.863281 299.882812 C 159.875 300.898438 161.140625 301.402344 162.410156 301.402344 C 163.675781 301.402344 164.945312 300.898438 165.957031 299.882812 L 186.738281 279.609375 C 188.765625 277.582031 188.765625 274.542969 186.738281 272.515625 C 184.964844 270.488281 181.667969 270.488281 179.640625 272.515625 Z M 179.640625 272.515625 " fill-opacity="1" fill-rule="nonzero"/><path fill="#ffffff" d="M 124.90625 146.820312 C 124.90625 149.609375 127.183594 151.890625 129.972656 151.890625 L 230.578125 151.890625 C 233.871094 148.089844 237.671875 144.542969 241.726562 141.753906 L 129.972656 141.753906 C 127.183594 141.753906 124.90625 144.035156 124.90625 146.820312 Z M 124.90625 146.820312 " fill-opacity="1" fill-rule="nonzero"/><g clip-path="url(#080e6fdefa)"><path fill="#ffffff" d="M 198.394531 339.414062 L 99.5625 339.414062 C 96.777344 339.414062 94.496094 337.132812 94.496094 334.347656 L 94.496094 40.390625 C 94.496094 37.601562 96.777344 35.320312 99.5625 35.320312 L 287.089844 35.320312 C 289.875 35.320312 292.15625 37.601562 292.15625 40.390625 L 292.15625 134.65625 C 295.703125 135.925781 299 137.445312 302.292969 139.21875 L 302.292969 40.390625 C 302.292969 32.027344 295.449219 25.183594 287.089844 25.183594 L 99.5625 25.183594 C 91.199219 25.183594 84.359375 32.027344 84.359375 40.390625 L 84.359375 49.765625 L 37.730469 60.15625 C 29.621094 61.929688 24.554688 70.039062 26.328125 78.402344 L 83.089844 321.675781 C 83.34375 322.691406 83.597656 323.703125 84.105469 324.71875 L 84.105469 334.601562 C 84.105469 342.964844 90.949219 349.804688 99.308594 349.804688 L 205.996094 349.804688 C 204.730469 347.777344 203.96875 345.242188 203.460938 342.710938 C 201.941406 341.695312 200.167969 340.683594 198.394531 339.414062 Z M 36.464844 75.867188 C 35.957031 74.09375 36.71875 72.824219 36.96875 72.066406 C 37.476562 71.304688 38.238281 70.292969 40.011719 69.785156 L 84.359375 60.15625 L 84.359375 281.382812 Z M 36.464844 75.867188 " fill-opacity="1" fill-rule="nonzero"/></g><g clip-path="url(#8bf81d72c8)"><path fill="#ffffff" d="M 335.238281 278.597656 L 307.363281 278.597656 L 307.363281 273.78125 C 307.363281 265.164062 302.546875 258.578125 296.464844 258.578125 L 295.449219 258.578125 C 297.730469 241.597656 302.546875 231.96875 306.855469 223.097656 L 307.109375 222.339844 C 316.230469 213.46875 321.300781 201.558594 321.300781 188.636719 C 321.300781 162.785156 300.265625 141.5 274.417969 141.5 C 248.570312 141.5 227.535156 162.535156 227.535156 188.636719 C 227.535156 201.8125 233.113281 214.484375 242.742188 223.351562 L 242.996094 224.113281 C 247.300781 232.980469 251.609375 242.359375 253.890625 258.578125 L 252.878906 258.578125 C 246.542969 258.578125 241.980469 265.164062 241.980469 273.78125 L 241.980469 278.597656 L 213.597656 278.597656 C 205.234375 278.597656 198.394531 285.4375 198.394531 293.800781 L 198.394531 319.140625 C 198.394531 327.503906 205.234375 334.347656 213.597656 334.347656 L 213.597656 339.414062 C 213.597656 344.992188 218.160156 349.550781 223.734375 349.550781 L 325.101562 349.550781 C 330.675781 349.550781 335.238281 344.992188 335.238281 339.414062 L 335.238281 334.347656 C 343.597656 334.347656 350.441406 327.503906 350.441406 319.140625 L 350.441406 293.800781 C 350.441406 285.4375 343.597656 278.597656 335.238281 278.597656 Z M 325.101562 339.414062 L 223.734375 339.414062 L 223.734375 334.347656 L 325.101562 334.347656 Z M 340.304688 319.140625 C 340.304688 321.929688 338.023438 324.210938 335.238281 324.210938 L 213.597656 324.210938 C 210.8125 324.210938 208.53125 321.929688 208.53125 319.140625 L 208.53125 293.800781 C 208.53125 291.011719 210.8125 288.734375 213.597656 288.734375 L 251.609375 288.734375 L 251.609375 273.78125 C 251.609375 270.992188 252.371094 269.21875 252.878906 268.714844 L 264.789062 268.714844 L 264.28125 263.136719 C 262.253906 241.851562 256.679688 230.195312 251.863281 219.804688 L 250.597656 217.269531 L 249.835938 216.511719 C 241.726562 209.414062 237.167969 199.277344 237.167969 188.636719 C 237.167969 168.363281 253.636719 151.636719 273.910156 151.636719 C 294.183594 151.636719 310.65625 168.109375 310.65625 188.636719 C 310.65625 198.769531 306.601562 208.402344 299 215.496094 L 298.238281 216.257812 L 296.972656 218.539062 C 291.902344 228.925781 286.074219 240.839844 284.046875 262.886719 L 283.539062 268.460938 L 295.449219 268.460938 C 295.957031 268.964844 296.71875 270.742188 296.71875 273.527344 L 296.71875 288.480469 L 334.730469 288.480469 C 337.515625 288.480469 339.796875 290.761719 339.796875 293.546875 L 339.796875 319.140625 Z M 340.304688 319.140625 " fill-opacity="1" fill-rule="nonzero"/></g><path fill="#ffffff" d="M 223.734375 298.871094 C 220.949219 298.871094 218.667969 301.148438 218.667969 303.9375 L 218.667969 309.003906 C 218.667969 311.792969 220.949219 314.074219 223.734375 314.074219 C 226.523438 314.074219 228.804688 311.792969 228.804688 309.003906 L 228.804688 303.9375 C 228.804688 301.148438 226.523438 298.871094 223.734375 298.871094 Z M 223.734375 298.871094 " fill-opacity="1" fill-rule="nonzero"/><path fill="#ffffff" d="M 244.007812 298.871094 C 241.222656 298.871094 238.941406 301.148438 238.941406 303.9375 L 238.941406 309.003906 C 238.941406 311.792969 241.222656 314.074219 244.007812 314.074219 C 246.796875 314.074219 249.078125 311.792969 249.078125 309.003906 L 249.078125 303.9375 C 249.078125 301.148438 246.796875 298.871094 244.007812 298.871094 Z M 244.007812 298.871094 " fill-opacity="1" fill-rule="nonzero"/><path fill="#ffffff" d="M 264.28125 298.871094 C 261.492188 298.871094 259.214844 301.148438 259.214844 303.9375 L 259.214844 309.003906 C 259.214844 311.792969 261.492188 314.074219 264.28125 314.074219 C 267.070312 314.074219 269.347656 311.792969 269.347656 309.003906 L 269.347656 303.9375 C 269.347656 301.148438 267.070312 298.871094 264.28125 298.871094 Z M 264.28125 298.871094 " fill-opacity="1" fill-rule="nonzero"/><path fill="#ffffff" d="M 284.554688 298.871094 C 281.765625 298.871094 279.484375 301.148438 279.484375 303.9375 L 279.484375 309.003906 C 279.484375 311.792969 281.765625 314.074219 284.554688 314.074219 C 287.34375 314.074219 289.621094 311.792969 289.621094 309.003906 L 289.621094 303.9375 C 289.621094 301.148438 287.34375 298.871094 284.554688 298.871094 Z M 284.554688 298.871094 " fill-opacity="1" fill-rule="nonzero"/><path fill="#ffffff" d="M 304.828125 298.871094 C 302.039062 298.871094 299.757812 301.148438 299.757812 303.9375 L 299.757812 309.003906 C 299.757812 311.792969 302.039062 314.074219 304.828125 314.074219 C 307.613281 314.074219 309.894531 311.792969 309.894531 309.003906 L 309.894531 303.9375 C 309.894531 301.148438 307.613281 298.871094 304.828125 298.871094 Z M 304.828125 298.871094 " fill-opacity="1" fill-rule="nonzero"/><path fill="#ffffff" d="M 325.101562 298.871094 C 322.3125 298.871094 320.03125 301.148438 320.03125 303.9375 L 320.03125 309.003906 C 320.03125 311.792969 322.3125 314.074219 325.101562 314.074219 C 327.886719 314.074219 330.167969 311.792969 330.167969 309.003906 L 330.167969 303.9375 C 330.167969 301.148438 327.886719 298.871094 325.101562 298.871094 Z M 325.101562 298.871094 " fill-opacity="1" fill-rule="nonzero"/><path fill="#ffffff" d="M 223.734375 162.027344 L 129.972656 162.027344 C 127.183594 162.027344 124.90625 164.308594 124.90625 167.09375 C 124.90625 169.882812 127.183594 172.164062 129.972656 172.164062 L 219.425781 172.164062 C 220.441406 168.617188 221.960938 165.320312 223.734375 162.027344 Z M 223.734375 162.027344 " fill-opacity="1" fill-rule="nonzero"/><path fill="#ffffff" d="M 217.398438 182.300781 L 129.972656 182.300781 C 127.183594 182.300781 124.90625 184.582031 124.90625 187.367188 C 124.90625 190.15625 127.183594 192.4375 129.972656 192.4375 L 217.148438 192.4375 C 217.148438 191.167969 217.148438 190.15625 217.148438 188.886719 C 216.894531 186.609375 217.148438 184.328125 217.398438 182.300781 Z M 217.398438 182.300781 " fill-opacity="1" fill-rule="nonzero"/><path fill="#ffffff" d="M 129.972656 202.574219 C 127.183594 202.574219 124.90625 204.851562 124.90625 207.640625 C 124.90625 210.429688 127.183594 212.710938 129.972656 212.710938 L 222.214844 212.710938 C 220.695312 209.414062 219.425781 206.121094 218.667969 202.574219 Z M 129.972656 202.574219 " fill-opacity="1" fill-rule="nonzero"/><path fill="#ffffff" d="M 129.972656 222.84375 C 127.183594 222.84375 124.90625 225.125 124.90625 227.914062 C 124.90625 230.703125 127.183594 232.980469 129.972656 232.980469 L 235.644531 232.980469 C 235.140625 231.714844 234.632812 230.703125 234.125 229.433594 C 232.097656 227.40625 230.070312 225.125 228.296875 222.84375 Z M 129.972656 222.84375 " fill-opacity="1" fill-rule="nonzero"/><path fill="#ffffff" d="M 198.394531 273.527344 C 201.183594 271.5 204.222656 269.980469 207.515625 269.21875 C 200.929688 253.761719 185.722656 243.117188 167.984375 243.117188 C 144.164062 243.117188 124.90625 262.378906 124.90625 286.199219 C 124.90625 310.019531 144.164062 329.277344 167.984375 329.277344 C 175.585938 329.277344 182.683594 327.25 188.765625 323.957031 C 188.511719 322.4375 188.257812 320.917969 188.257812 319.140625 L 188.257812 312.046875 C 182.683594 316.355469 175.585938 319.140625 167.984375 319.140625 C 149.738281 319.140625 135.042969 304.445312 135.042969 286.199219 C 135.042969 267.953125 149.738281 253.253906 167.984375 253.253906 C 181.667969 253.253906 193.324219 261.617188 198.394531 273.527344 Z M 198.394531 273.527344 " fill-opacity="1" fill-rule="nonzero"/><path fill="#ffffff" d="M 274.417969 164.5625 C 260.480469 164.5625 249.078125 175.964844 249.078125 189.902344 C 249.078125 192.691406 251.355469 194.96875 254.144531 194.96875 C 256.933594 194.96875 259.214844 192.691406 259.214844 189.902344 C 259.214844 181.539062 266.054688 174.699219 274.417969 174.699219 C 277.207031 174.699219 279.484375 172.417969 279.484375 169.628906 C 279.484375 166.839844 277.207031 164.5625 274.417969 164.5625 Z M 274.417969 164.5625 " fill-opacity="1" fill-rule="nonzero"/></svg>