<svg xmlns="http://www.w3.org/2000/svg" xmlns:xlink="http://www.w3.org/1999/xlink" width="500" zoomAndPan="magnify" viewBox="0 0 375 374.999991" height="500" preserveAspectRatio="xMidYMid meet" version="1.0"><defs><clipPath id="04c5acd74e"><path d="M 54 25.433594 L 324 25.433594 L 324 154 L 54 154 Z M 54 25.433594 " clip-rule="nonzero"/></clipPath><clipPath id="cf3138e8f7"><path d="M 80 208 L 222 208 L 222 349.433594 L 80 349.433594 Z M 80 208 " clip-rule="nonzero"/></clipPath></defs><path fill="#ffffff" d="M 211.042969 250.414062 L 242.433594 250.414062 C 248.191406 250.414062 252.898438 245.707031 252.898438 239.949219 L 252.898438 198.09375 C 252.898438 192.339844 248.191406 187.628906 242.433594 187.628906 L 211.042969 187.628906 C 205.289062 187.628906 200.578125 192.339844 200.578125 198.09375 L 200.578125 239.949219 C 200.578125 245.707031 205.289062 250.414062 211.042969 250.414062 Z M 211.042969 198.09375 L 242.433594 198.09375 L 242.433594 239.949219 L 211.042969 239.949219 Z M 211.042969 198.09375 " fill-opacity="1" fill-rule="nonzero"/><path fill="#ffffff" d="M 289.523438 82.988281 C 283.769531 82.988281 279.058594 87.695312 279.058594 93.453125 L 279.058594 239.949219 C 279.058594 245.707031 283.769531 250.414062 289.523438 250.414062 L 320.917969 250.414062 C 326.671875 250.414062 331.382812 245.707031 331.382812 239.949219 L 331.382812 93.453125 C 331.382812 87.695312 326.671875 82.988281 320.917969 82.988281 Z M 289.523438 239.949219 L 289.523438 93.453125 L 320.917969 93.453125 L 320.917969 239.949219 Z M 289.523438 239.949219 " fill-opacity="1" fill-rule="nonzero"/><g clip-path="url(#04c5acd74e)"><path fill="#ffffff" d="M 69.777344 145.773438 C 78.410156 145.773438 85.472656 138.710938 85.472656 130.078125 C 85.472656 128.769531 85.210938 127.460938 84.949219 126.414062 L 140.410156 78.277344 C 142.765625 79.585938 145.378906 80.371094 148.257812 80.371094 C 150.875 80.371094 153.226562 79.847656 155.582031 78.539062 L 212.351562 131.644531 C 211.566406 133.476562 211.042969 135.570312 211.042969 137.925781 C 211.042969 146.558594 218.105469 153.621094 226.738281 153.621094 C 235.371094 153.621094 242.433594 146.558594 242.433594 137.925781 C 242.433594 135.046875 241.652344 132.167969 240.082031 129.816406 L 301.035156 55.257812 C 303.128906 56.304688 305.480469 56.828125 307.835938 56.828125 C 316.46875 56.828125 323.53125 49.765625 323.53125 41.132812 C 323.53125 32.496094 316.46875 25.433594 307.835938 25.433594 C 299.203125 25.433594 292.140625 32.496094 292.140625 41.132812 C 292.140625 43.484375 292.664062 45.578125 293.710938 47.671875 L 231.972656 123.273438 C 230.402344 122.75 228.570312 122.230469 226.738281 122.230469 C 224.125 122.230469 221.769531 122.75 219.414062 124.058594 L 162.644531 70.953125 C 163.429688 69.121094 163.953125 67.03125 163.953125 64.675781 C 163.953125 56.042969 156.890625 48.980469 148.257812 48.980469 C 139.625 48.980469 132.5625 56.042969 132.5625 64.675781 C 132.5625 66.769531 133.085938 68.597656 133.609375 70.429688 L 79.195312 117.519531 C 76.578125 115.425781 73.175781 114.378906 69.777344 114.378906 C 61.144531 114.378906 54.078125 121.445312 54.078125 130.078125 C 54.078125 138.710938 61.144531 145.773438 69.777344 145.773438 Z M 307.835938 35.898438 C 310.714844 35.898438 313.070312 38.253906 313.070312 41.132812 C 313.070312 44.007812 310.714844 46.363281 307.835938 46.363281 C 304.960938 46.363281 302.605469 44.007812 302.605469 41.132812 C 302.605469 38.253906 304.960938 35.898438 307.835938 35.898438 Z M 231.972656 137.925781 C 231.972656 140.800781 229.617188 143.15625 226.738281 143.15625 C 223.863281 143.15625 221.507812 140.800781 221.507812 137.925781 C 221.507812 135.046875 223.863281 132.691406 226.738281 132.691406 C 229.617188 132.691406 231.972656 135.046875 231.972656 137.925781 Z M 148.257812 59.441406 C 151.136719 59.441406 153.488281 61.796875 153.488281 64.675781 C 153.488281 67.554688 151.136719 69.90625 148.257812 69.90625 C 145.378906 69.90625 143.027344 67.554688 143.027344 64.675781 C 143.027344 61.796875 145.378906 59.441406 148.257812 59.441406 Z M 69.777344 124.84375 C 72.652344 124.84375 75.007812 127.199219 75.007812 130.078125 C 75.007812 132.953125 72.652344 135.308594 69.777344 135.308594 C 66.898438 135.308594 64.542969 132.953125 64.542969 130.078125 C 64.542969 127.199219 66.898438 124.84375 69.777344 124.84375 Z M 69.777344 124.84375 " fill-opacity="1" fill-rule="nonzero"/></g><path fill="#ffffff" d="M 201.886719 264.019531 C 201.886719 264.804688 201.886719 265.328125 201.886719 266.113281 L 349.695312 266.113281 C 352.570312 266.113281 354.925781 263.757812 354.925781 260.878906 C 354.925781 258 352.570312 255.648438 349.695312 255.648438 L 201.101562 255.648438 C 201.625 258.523438 201.886719 261.140625 201.886719 264.019531 Z M 201.886719 264.019531 " fill-opacity="1" fill-rule="nonzero"/><path fill="#ffffff" d="M 25.304688 266.113281 L 69.777344 266.113281 C 69.777344 265.328125 69.777344 264.804688 69.777344 264.019531 C 69.777344 261.140625 70.039062 258.261719 70.300781 255.648438 L 25.304688 255.648438 C 22.425781 255.648438 20.070312 258 20.070312 260.878906 C 20.070312 263.757812 22.425781 266.113281 25.304688 266.113281 Z M 25.304688 266.113281 " fill-opacity="1" fill-rule="nonzero"/><path fill="#ffffff" d="M 163.953125 145.773438 L 163.953125 204.371094 C 167.617188 206.203125 171.015625 208.035156 174.417969 210.652344 L 174.417969 145.773438 C 174.417969 140.019531 169.710938 135.308594 163.953125 135.308594 L 132.5625 135.308594 C 126.804688 135.308594 122.097656 140.019531 122.097656 145.773438 L 122.097656 199.664062 C 125.496094 198.878906 129.160156 198.355469 132.5625 198.355469 L 132.5625 145.773438 Z M 163.953125 145.773438 " fill-opacity="1" fill-rule="nonzero"/><path fill="#ffffff" d="M 54.078125 250.414062 L 71.085938 250.414062 C 71.867188 246.753906 72.914062 243.351562 74.222656 239.949219 L 54.078125 239.949219 L 54.078125 171.933594 L 85.472656 171.933594 L 85.472656 221.375 C 86.519531 220.070312 87.828125 218.761719 89.136719 217.453125 C 91.226562 215.359375 93.582031 213.265625 95.9375 211.4375 L 95.9375 171.933594 C 95.9375 166.179688 91.226562 161.46875 85.472656 161.46875 L 54.078125 161.46875 C 48.324219 161.46875 43.617188 166.179688 43.617188 171.933594 L 43.617188 239.949219 C 43.617188 245.707031 48.324219 250.414062 54.078125 250.414062 Z M 54.078125 250.414062 " fill-opacity="1" fill-rule="nonzero"/><g clip-path="url(#cf3138e8f7)"><path fill="#ffffff" d="M 80.238281 264.019531 C 80.238281 278.929688 85.996094 292.796875 96.460938 303.257812 C 106.925781 313.722656 120.789062 319.480469 135.699219 319.480469 C 148.78125 319.480469 161.078125 315.03125 171.015625 306.660156 L 212.351562 347.992188 C 213.398438 349.039062 214.707031 349.5625 216.011719 349.5625 C 217.320312 349.5625 218.628906 349.039062 219.675781 347.992188 C 221.769531 345.902344 221.769531 342.761719 219.675781 340.667969 L 178.34375 299.335938 C 186.714844 289.394531 191.160156 277.097656 191.160156 264.019531 C 191.160156 249.105469 185.40625 235.242188 174.941406 224.777344 C 153.226562 203.066406 118.171875 203.066406 96.460938 224.777344 C 85.996094 235.242188 80.238281 249.367188 80.238281 264.019531 Z M 135.699219 219.023438 C 147.210938 219.023438 158.722656 223.46875 167.617188 232.101562 C 176.25 240.734375 180.695312 251.984375 180.695312 264.019531 C 180.695312 276.050781 175.988281 287.300781 167.617188 295.933594 C 159.246094 304.566406 147.734375 309.015625 135.699219 309.015625 C 123.667969 309.015625 112.417969 304.304688 103.785156 295.933594 C 95.152344 287.300781 90.703125 276.050781 90.703125 264.019531 C 90.703125 251.984375 95.414062 240.734375 103.785156 232.101562 C 112.679688 223.46875 124.191406 219.023438 135.699219 219.023438 Z M 135.699219 219.023438 " fill-opacity="1" fill-rule="nonzero"/></g></svg>