<svg xmlns="http://www.w3.org/2000/svg" xmlns:xlink="http://www.w3.org/1999/xlink" width="500" zoomAndPan="magnify" viewBox="0 0 375 374.999991" height="500" preserveAspectRatio="xMidYMid meet" version="1.0"><defs><clipPath id="683afa3dc0"><path d="M 37.5 10.75 L 281 10.75 L 281 315 L 37.5 315 Z M 37.5 10.75 " clip-rule="nonzero"/></clipPath><clipPath id="48fe8577f6"><path d="M 209 204 L 341.25 204 L 341.25 364 L 209 364 Z M 209 204 " clip-rule="nonzero"/></clipPath></defs><path fill="#ffffff" d="M 65.226562 190.261719 C 65.226562 193.296875 67.714844 195.785156 70.75 195.785156 L 247.5 195.785156 C 250.539062 195.785156 253.023438 193.296875 253.023438 190.261719 C 253.023438 187.222656 250.539062 184.738281 247.5 184.738281 L 70.75 184.738281 C 67.714844 184.738281 65.226562 187.222656 65.226562 190.261719 Z M 65.226562 190.261719 " fill-opacity="1" fill-rule="nonzero"/><g clip-path="url(#683afa3dc0)"><path fill="#ffffff" d="M 219.054688 14.339844 C 216.570312 12.132812 213.253906 10.75 209.664062 10.75 L 51.695312 10.75 C 43.964844 10.75 37.609375 17.101562 37.609375 24.835938 L 37.609375 300.726562 C 37.609375 308.460938 43.964844 314.8125 51.695312 314.8125 L 198.339844 314.8125 C 199.445312 310.394531 201.929688 306.527344 205.246094 303.765625 L 51.695312 303.765625 C 50.039062 303.765625 48.65625 302.386719 48.65625 300.726562 L 48.65625 24.835938 C 48.65625 23.179688 50.039062 21.796875 51.695312 21.796875 L 209.664062 21.796875 C 211.320312 21.796875 212.703125 23.179688 212.703125 24.558594 L 213.53125 54.9375 C 213.808594 62.394531 219.605469 68.46875 227.339844 68.46875 L 266.832031 69.574219 C 268.488281 69.574219 269.867188 70.957031 269.867188 72.613281 L 269.867188 193.574219 C 270.144531 193.574219 270.699219 193.296875 270.972656 193.296875 C 274.289062 193.023438 277.601562 193.023438 280.914062 193.574219 L 280.914062 72.613281 C 280.914062 68.195312 278.984375 64.328125 275.667969 61.84375 Z M 224.578125 54.660156 L 224.023438 32.84375 L 254.128906 58.25 L 227.613281 57.421875 C 225.957031 57.421875 224.578125 56.320312 224.578125 54.660156 Z M 224.578125 54.660156 " fill-opacity="1" fill-rule="nonzero"/></g><path fill="#ffffff" d="M 70.75 217.878906 L 238.9375 217.878906 C 240.59375 213.734375 242.804688 210.144531 245.566406 206.832031 L 70.75 206.832031 C 67.714844 206.832031 65.226562 209.316406 65.226562 212.355469 C 65.226562 215.390625 67.714844 217.878906 70.75 217.878906 Z M 70.75 217.878906 " fill-opacity="1" fill-rule="nonzero"/><path fill="#ffffff" d="M 70.75 239.972656 L 237.28125 239.972656 C 236.453125 236.378906 236.175781 232.789062 236.453125 228.925781 L 70.75 228.925781 C 67.714844 228.925781 65.226562 231.410156 65.226562 234.449219 C 65.226562 237.484375 67.714844 239.972656 70.75 239.972656 Z M 70.75 239.972656 " fill-opacity="1" fill-rule="nonzero"/><g clip-path="url(#48fe8577f6)"><path fill="#ffffff" d="M 228.167969 364.246094 L 322.066406 364.246094 C 328.140625 364.246094 333.113281 359.277344 333.113281 353.199219 L 333.113281 347.675781 L 335.875 347.675781 C 338.910156 347.675781 341.398438 345.191406 341.398438 342.152344 L 341.398438 320.058594 C 341.398438 313.984375 336.425781 309.011719 330.351562 309.011719 L 308.257812 309.011719 L 308.257812 303.488281 C 308.257812 298.792969 305.21875 294.929688 301.074219 293.269531 C 298.867188 288.300781 294.449219 276.703125 294.449219 267.585938 C 294.449219 264.273438 295.550781 254.882812 296.105469 249.914062 C 300.523438 244.941406 302.734375 238.589844 302.734375 231.960938 C 302.734375 224.230469 299.417969 216.496094 293.621094 211.523438 C 287.820312 206.554688 279.8125 203.792969 272.078125 204.621094 C 259.375 206.003906 249.15625 216.21875 247.777344 229.199219 C 246.945312 236.933594 249.433594 244.390625 254.402344 250.1875 C 254.957031 255.160156 256.0625 264.550781 256.0625 267.863281 C 255.785156 276.976562 251.367188 288.578125 249.433594 293.546875 C 245.289062 295.203125 242.253906 299.070312 242.253906 303.765625 L 242.253906 309.289062 L 220.160156 309.289062 C 214.082031 309.289062 209.113281 314.261719 209.113281 320.335938 L 209.113281 342.429688 C 209.113281 345.46875 211.597656 347.953125 214.636719 347.953125 L 217.398438 347.953125 L 217.398438 353.476562 C 217.121094 359.277344 222.09375 364.246094 228.167969 364.246094 Z M 322.066406 353.199219 L 228.167969 353.199219 L 228.167969 347.675781 L 322.066406 347.675781 Z M 258.546875 229.753906 C 259.375 222.296875 265.726562 215.945312 273.183594 215.117188 C 277.878906 214.5625 282.574219 215.945312 286.164062 219.257812 C 289.753906 222.296875 291.6875 226.992188 291.6875 231.6875 C 291.6875 236.105469 290.03125 240.246094 286.714844 243.285156 C 285.886719 244.113281 285.335938 245.21875 285.058594 246.597656 C 285.058594 248.253906 283.402344 262.339844 283.402344 267.585938 C 283.675781 276.148438 286.4375 285.816406 288.925781 292.441406 L 261.308594 292.441406 C 263.792969 285.816406 266.832031 276.148438 266.832031 267.585938 C 266.832031 262.339844 265.175781 247.980469 264.898438 246.597656 C 264.621094 245.492188 264.070312 244.390625 263.242188 243.285156 C 259.925781 239.695312 257.992188 235 258.546875 229.753906 Z M 253.023438 303.488281 L 297.210938 303.488281 L 297.210938 309.011719 L 253.023438 309.011719 Z M 219.882812 320.058594 L 330.351562 320.058594 L 330.351562 336.628906 L 219.882812 336.628906 Z M 219.882812 320.058594 " fill-opacity="1" fill-rule="nonzero"/></g><path fill="#ffffff" d="M 189.78125 61.566406 C 188.125 57.421875 183.703125 56.042969 180.941406 55.214844 C 180.390625 54.9375 179.285156 54.660156 178.734375 54.660156 C 178.457031 54.109375 178.179688 53.28125 178.179688 52.453125 C 177.351562 49.691406 176.246094 45.273438 171.828125 43.613281 C 167.6875 41.957031 164.097656 43.890625 161.335938 45.546875 C 160.78125 45.824219 159.675781 46.375 159.125 46.652344 C 158.574219 46.375 157.46875 45.824219 156.914062 45.546875 C 154.152344 44.167969 150.5625 41.957031 146.421875 43.613281 C 142.277344 45.273438 140.898438 49.691406 140.070312 52.453125 C 139.792969 53.003906 139.515625 54.109375 139.515625 54.660156 C 138.964844 54.9375 138.136719 55.214844 137.308594 55.214844 C 134.546875 56.042969 130.128906 57.148438 128.46875 61.566406 C 126.8125 65.707031 128.746094 69.296875 130.402344 72.058594 C 130.679688 72.613281 131.230469 73.71875 131.507812 74.269531 C 131.230469 74.820312 130.679688 75.925781 130.402344 76.480469 C 129.023438 79.242188 126.8125 82.832031 128.46875 86.972656 C 130.128906 91.117188 134.546875 92.496094 137.308594 93.324219 C 137.859375 93.601562 138.964844 93.878906 139.515625 93.878906 C 139.792969 94.429688 140.070312 95.257812 140.070312 96.085938 C 140.898438 98.847656 142.003906 103.265625 146.421875 104.925781 C 147.527344 105.476562 148.632812 105.476562 149.460938 105.476562 C 152.222656 105.476562 154.707031 104.09375 156.640625 102.992188 C 157.191406 102.714844 158.296875 102.164062 158.847656 101.886719 C 159.402344 102.164062 160.507812 102.714844 161.058594 102.992188 C 163.820312 104.371094 167.410156 106.582031 171.554688 104.925781 C 175.695312 103.265625 177.078125 98.847656 177.90625 96.085938 C 178.179688 95.535156 178.457031 94.429688 178.457031 93.878906 C 179.007812 93.601562 179.839844 93.324219 180.667969 93.324219 C 183.429688 92.496094 187.847656 91.390625 189.503906 86.972656 C 191.160156 82.832031 189.226562 79.242188 187.570312 76.480469 C 187.292969 75.925781 186.742188 74.820312 186.464844 74.269531 C 186.742188 73.71875 187.292969 72.613281 187.570312 72.058594 C 189.503906 69.296875 191.4375 65.707031 189.78125 61.566406 Z M 177.90625 82.554688 C 175.695312 83.105469 172.933594 83.933594 171 85.867188 C 169.066406 87.800781 168.238281 90.5625 167.6875 92.773438 C 167.6875 93.050781 167.6875 93.324219 167.410156 93.601562 C 167.132812 93.601562 167.132812 93.324219 166.859375 93.324219 C 164.648438 92.21875 162.164062 90.839844 159.125 90.839844 C 156.085938 90.839844 153.601562 92.21875 151.667969 93.324219 C 151.394531 93.324219 151.394531 93.601562 151.117188 93.601562 C 151.117188 93.324219 150.839844 93.050781 150.839844 92.773438 C 150.289062 90.5625 149.460938 87.800781 147.527344 85.867188 C 145.59375 83.933594 142.832031 83.105469 140.621094 82.554688 C 140.347656 82.554688 140.070312 82.554688 139.792969 82.277344 C 139.792969 82.003906 140.070312 82.003906 140.070312 81.726562 C 141.175781 79.792969 142.554688 77.308594 142.554688 74.269531 C 142.554688 71.230469 141.175781 68.746094 140.070312 66.8125 C 140.070312 66.535156 139.792969 66.535156 139.792969 66.261719 C 140.070312 66.261719 140.347656 65.984375 140.621094 65.984375 C 142.832031 65.433594 145.59375 64.605469 147.527344 62.671875 C 149.460938 60.738281 150.289062 57.976562 150.839844 55.765625 C 150.839844 55.488281 150.839844 55.214844 151.117188 54.9375 C 151.394531 54.9375 151.394531 55.214844 151.667969 55.214844 C 153.601562 56.320312 156.085938 57.699219 159.125 57.699219 C 162.164062 57.699219 164.648438 56.320312 166.582031 55.214844 C 166.859375 55.214844 166.859375 54.9375 167.132812 54.9375 C 167.132812 55.214844 167.410156 55.488281 167.410156 55.765625 C 167.960938 57.976562 168.792969 60.738281 170.722656 62.671875 C 172.65625 64.605469 175.417969 65.433594 177.628906 65.984375 C 177.90625 65.984375 178.179688 65.984375 178.457031 66.261719 C 178.457031 66.535156 178.179688 66.535156 178.179688 66.8125 C 177.078125 68.746094 175.695312 71.230469 175.695312 74.269531 C 175.695312 77.308594 177.078125 79.792969 178.179688 81.726562 C 178.179688 82.003906 178.457031 82.003906 178.457031 82.277344 C 178.179688 82.554688 177.90625 82.554688 177.90625 82.554688 Z M 177.90625 82.554688 " fill-opacity="1" fill-rule="nonzero"/><path fill="#ffffff" d="M 114.9375 123.980469 C 114.9375 127.019531 117.425781 129.503906 120.460938 129.503906 L 197.789062 129.503906 C 200.828125 129.503906 203.3125 127.019531 203.3125 123.980469 C 203.3125 120.941406 200.828125 118.457031 197.789062 118.457031 L 120.460938 118.457031 C 117.425781 118.457031 114.9375 120.941406 114.9375 123.980469 Z M 114.9375 123.980469 " fill-opacity="1" fill-rule="nonzero"/><path fill="#ffffff" d="M 120.460938 151.597656 L 197.789062 151.597656 C 200.828125 151.597656 203.3125 149.109375 203.3125 146.074219 C 203.3125 143.035156 200.828125 140.550781 197.789062 140.550781 L 120.460938 140.550781 C 117.425781 140.550781 114.9375 143.035156 114.9375 146.074219 C 114.9375 149.109375 117.425781 151.597656 120.460938 151.597656 Z M 120.460938 151.597656 " fill-opacity="1" fill-rule="nonzero"/></svg>