<svg xmlns="http://www.w3.org/2000/svg" xmlns:xlink="http://www.w3.org/1999/xlink" width="500" zoomAndPan="magnify" viewBox="0 0 375 374.999991" height="500" preserveAspectRatio="xMidYMid meet" version="1.0"><defs><clipPath id="92b5088195"><path d="M 27.15625 27.15625 L 348 27.15625 L 348 348 L 27.15625 348 Z M 27.15625 27.15625 " clip-rule="nonzero"/></clipPath></defs><g clip-path="url(#92b5088195)"><path fill="#ffffff" d="M 127.9375 29 L 108.148438 46.957031 L 108.148438 46.386719 C 108.148438 35.851562 99.578125 27.285156 89.042969 27.285156 L 46.324219 27.285156 C 35.792969 27.285156 27.222656 35.851562 27.222656 46.386719 L 27.222656 89.105469 C 27.222656 99.640625 35.792969 108.210938 46.324219 108.210938 L 89.042969 108.210938 C 99.578125 108.210938 108.148438 99.640625 108.148438 89.105469 L 108.148438 60.484375 L 134.667969 36.417969 C 136.714844 34.558594 136.871094 31.394531 135.011719 29.34375 C 133.152344 27.296875 129.984375 27.140625 127.9375 29 Z M 98.132812 89.105469 C 98.132812 94.117188 94.054688 98.195312 89.042969 98.195312 L 46.324219 98.195312 C 41.316406 98.195312 37.238281 94.117188 37.238281 89.105469 L 37.238281 46.386719 C 37.238281 41.378906 41.316406 37.300781 46.324219 37.300781 L 89.042969 37.300781 C 94.054688 37.300781 98.132812 41.378906 98.132812 46.386719 L 98.132812 56.050781 L 81.09375 71.511719 L 63.726562 54.144531 C 61.773438 52.1875 58.601562 52.1875 56.644531 54.144531 C 54.6875 56.101562 54.6875 59.269531 56.644531 61.226562 L 77.386719 81.96875 C 78.359375 82.945312 79.644531 83.433594 80.929688 83.433594 C 82.132812 83.433594 83.335938 83.003906 84.292969 82.136719 L 98.132812 69.578125 Z M 127.9375 148.816406 L 108.148438 166.773438 L 108.148438 166.203125 C 108.148438 155.667969 99.578125 147.097656 89.042969 147.097656 L 46.324219 147.097656 C 35.792969 147.097656 27.222656 155.667969 27.222656 166.203125 L 27.222656 208.921875 C 27.222656 219.457031 35.792969 228.027344 46.324219 228.027344 L 89.042969 228.027344 C 99.578125 228.027344 108.148438 219.457031 108.148438 208.921875 L 108.148438 180.300781 L 134.667969 156.234375 C 136.714844 154.375 136.871094 151.207031 135.011719 149.160156 C 133.152344 147.109375 129.984375 146.957031 127.9375 148.816406 Z M 98.132812 208.921875 C 98.132812 213.933594 94.054688 218.007812 89.042969 218.007812 L 46.324219 218.007812 C 41.316406 218.007812 37.238281 213.933594 37.238281 208.921875 L 37.238281 166.203125 C 37.238281 161.191406 41.316406 157.117188 46.324219 157.117188 L 89.042969 157.117188 C 94.054688 157.117188 98.132812 161.191406 98.132812 166.203125 L 98.132812 175.863281 L 81.09375 191.328125 L 63.726562 173.960938 C 61.773438 172.003906 58.601562 172.003906 56.644531 173.960938 C 54.6875 175.914062 54.6875 179.085938 56.644531 181.042969 L 77.386719 201.785156 C 78.359375 202.757812 79.644531 203.25 80.929688 203.25 C 82.132812 203.25 83.335938 202.820312 84.292969 201.953125 L 98.132812 189.390625 Z M 127.9375 268.632812 L 108.148438 286.589844 L 108.148438 286.019531 C 108.148438 275.484375 99.578125 266.914062 89.042969 266.914062 L 46.324219 266.914062 C 35.792969 266.914062 27.222656 275.484375 27.222656 286.019531 L 27.222656 328.738281 C 27.222656 339.273438 35.792969 347.839844 46.324219 347.839844 L 89.042969 347.839844 C 99.578125 347.839844 108.148438 339.273438 108.148438 328.738281 L 108.148438 300.117188 L 134.667969 276.050781 C 136.714844 274.191406 136.871094 271.023438 135.011719 268.972656 C 133.152344 266.925781 129.984375 266.773438 127.9375 268.632812 Z M 98.132812 328.738281 C 98.132812 333.746094 94.054688 337.824219 89.042969 337.824219 L 46.324219 337.824219 C 41.316406 337.824219 37.238281 333.746094 37.238281 328.738281 L 37.238281 286.019531 C 37.238281 281.007812 41.316406 276.929688 46.324219 276.929688 L 89.042969 276.929688 C 94.054688 276.929688 98.132812 281.007812 98.132812 286.019531 L 98.132812 295.679688 L 81.09375 311.140625 L 63.726562 293.773438 C 61.773438 291.820312 58.601562 291.820312 56.644531 293.773438 C 54.6875 295.730469 54.6875 298.902344 56.644531 300.859375 L 77.386719 321.597656 C 78.359375 322.574219 79.644531 323.066406 80.929688 323.066406 C 82.132812 323.066406 83.335938 322.636719 84.292969 321.765625 L 98.132812 309.207031 Z M 319.917969 73.59375 C 319.917969 76.359375 317.675781 78.601562 314.910156 78.601562 L 178.109375 78.601562 C 175.34375 78.601562 173.101562 76.359375 173.101562 73.59375 C 173.101562 70.828125 175.34375 68.585938 178.109375 68.585938 L 314.910156 68.585938 C 317.675781 68.585938 319.917969 70.828125 319.917969 73.59375 Z M 333.378906 41.460938 L 159.640625 41.460938 C 151.699219 41.460938 145.238281 47.917969 145.238281 55.859375 L 145.238281 91.324219 C 145.238281 99.265625 151.699219 105.726562 159.640625 105.726562 L 333.378906 105.726562 C 341.320312 105.726562 347.777344 99.265625 347.777344 91.324219 L 347.777344 55.859375 C 347.777344 47.917969 341.320312 41.460938 333.378906 41.460938 Z M 337.761719 91.324219 C 337.761719 93.742188 335.796875 95.707031 333.378906 95.707031 L 159.640625 95.707031 C 157.222656 95.707031 155.257812 93.742188 155.257812 91.324219 L 155.257812 55.859375 C 155.257812 53.445312 157.222656 51.476562 159.640625 51.476562 L 333.378906 51.476562 C 335.796875 51.476562 337.761719 53.445312 337.761719 55.859375 Z M 319.917969 187.5625 C 319.917969 190.328125 317.675781 192.570312 314.910156 192.570312 L 178.109375 192.570312 C 175.34375 192.570312 173.101562 190.328125 173.101562 187.5625 C 173.101562 184.796875 175.34375 182.554688 178.109375 182.554688 L 314.910156 182.554688 C 317.675781 182.554688 319.917969 184.796875 319.917969 187.5625 Z M 333.378906 155.429688 L 159.640625 155.429688 C 151.699219 155.429688 145.238281 161.890625 145.238281 169.832031 L 145.238281 205.296875 C 145.238281 213.234375 151.699219 219.695312 159.640625 219.695312 L 333.378906 219.695312 C 341.320312 219.695312 347.777344 213.234375 347.777344 205.296875 L 347.777344 169.832031 C 347.777344 161.890625 341.320312 155.429688 333.378906 155.429688 Z M 337.761719 205.292969 C 337.761719 207.710938 335.796875 209.675781 333.378906 209.675781 L 159.640625 209.675781 C 157.222656 209.675781 155.257812 207.710938 155.257812 205.292969 L 155.257812 169.828125 C 155.257812 167.414062 157.222656 165.445312 159.640625 165.445312 L 333.378906 165.445312 C 335.796875 165.445312 337.761719 167.414062 337.761719 169.828125 Z M 319.917969 301.53125 C 319.917969 304.296875 317.675781 306.539062 314.910156 306.539062 L 178.109375 306.539062 C 175.34375 306.539062 173.101562 304.296875 173.101562 301.53125 C 173.101562 298.765625 175.34375 296.523438 178.109375 296.523438 L 314.910156 296.523438 C 317.675781 296.523438 319.917969 298.765625 319.917969 301.53125 Z M 333.378906 269.398438 L 159.640625 269.398438 C 151.699219 269.398438 145.238281 275.859375 145.238281 283.800781 L 145.238281 319.265625 C 145.238281 327.207031 151.699219 333.664062 159.640625 333.664062 L 333.378906 333.664062 C 341.320312 333.664062 347.777344 327.207031 347.777344 319.265625 L 347.777344 283.800781 C 347.777344 275.859375 341.320312 269.398438 333.378906 269.398438 Z M 337.761719 319.265625 C 337.761719 321.679688 335.796875 323.648438 333.378906 323.648438 L 159.640625 323.648438 C 157.222656 323.648438 155.257812 321.679688 155.257812 319.265625 L 155.257812 283.800781 C 155.257812 281.382812 157.222656 279.417969 159.640625 279.417969 L 333.378906 279.417969 C 335.796875 279.417969 337.761719 281.382812 337.761719 283.800781 Z M 337.761719 319.265625 " fill-opacity="1" fill-rule="nonzero"/></g></svg>